# MagicaVoxel @ Ephtracy

# group
g ApplePie

# material
mtllib ApplePie.mtl
usemtl palette

# normals
vn -1 0 0
vn 1 0 0
vn 0 0 1
vn 0 0 -1
vn 0 -1 0
vn 0 1 0

# texcoords
vt 0.0683594 0.5
vt 0.0722656 0.5
vt 0.396484 0.5

# verts
v -17 0 15
v -17 0 -5
v -17 1 15
v -17 1 -5
v -17 3 15
v -17 3 -5
v -17 4 3
v -17 4 2
v -17 4 1
v -17 4 -0
v -17 4 -1
v -17 4 -2
v -17 5 15
v -17 5 3
v -17 5 2
v -17 5 1
v -17 5 -0
v -17 5 -1
v -17 5 -2
v -17 5 -5
v -11 4 11
v -11 4 1
v -11 4 -0
v -11 4 -1
v -11 5 11
v -11 5 2
v -11 5 -1
v -11 6 11
v -11 6 2
v -11 6 -1
v -7 4 11
v -7 4 -1
v -7 5 11
v -7 5 9
v -7 5 5
v -7 5 -1
v -7 6 11
v -7 6 9
v -7 6 5
v -7 6 -1
v -3 4 11
v -3 4 -1
v -3 5 11
v -3 5 -1
v -3 6 11
v -3 6 -1
v 1 4 11
v 1 4 -1
v 1 5 11
v 1 5 9
v 1 5 -1
v 1 6 11
v 1 6 9
v 1 6 -1
v 5 4 11
v 5 4 -1
v 5 5 11
v 5 5 -1
v 5 6 11
v 5 6 -1
v 9 4 11
v 9 4 -1
v 9 5 11
v 9 5 8
v 9 5 4
v 9 5 -1
v 9 6 11
v 9 6 8
v 9 6 4
v 9 6 -1
v 13 4 11
v 13 4 -1
v 13 5 11
v 13 5 2
v 13 5 -0
v 13 5 -1
v 13 6 11
v 13 6 2
v 13 6 -0
v 13 6 -1
v 17 4 11
v 17 4 10
v 17 4 9
v 17 4 8
v 17 4 7
v 17 4 -1
v 17 5 11
v 17 5 10
v 17 5 9
v 17 5 8
v 17 5 7
v 17 5 -1
v -12 4 11
v -12 4 1
v -12 4 -0
v -12 4 -1
v -12 5 11
v -12 5 -1
v -8 4 11
v -8 4 -1
v -8 5 11
v -8 5 4
v -8 5 1
v -8 5 -1
v -8 6 11
v -8 6 4
v -8 6 1
v -8 6 -1
v -4 4 11
v -4 4 -1
v -4 5 11
v -4 5 -1
v -4 6 11
v -4 6 -1
v 0 4 11
v 0 4 -1
v 0 5 11
v 0 5 10
v 0 5 -1
v 0 6 11
v 0 6 10
v 0 6 -1
v 4 4 11
v 4 4 -1
v 4 5 11
v 4 5 -1
v 4 6 11
v 4 6 -1
v 8 4 11
v 8 4 -1
v 8 5 11
v 8 5 4
v 8 5 -0
v 8 5 -1
v 8 6 11
v 8 6 4
v 8 6 -0
v 8 6 -1
v 12 4 11
v 12 4 -1
v 12 5 11
v 12 5 10
v 12 5 -1
v 12 6 11
v 12 6 10
v 12 6 -1
v 16 4 11
v 16 4 10
v 16 4 -1
v 16 5 11
v 16 5 10
v 16 5 7
v 16 5 6
v 16 5 -1
v 16 6 11
v 16 6 10
v 16 6 7
v 16 6 6
v 16 6 -1
v 22 0 15
v 22 0 -5
v 22 1 15
v 22 1 -5
v 22 3 15
v 22 3 -5
v 22 5 15
v 22 5 -5
v -17 0 15
v -17 1 15
v -17 3 15
v -17 5 15
v -11 4 15
v -11 5 15
v -10 4 15
v -10 5 15
v -9 4 15
v -9 5 15
v -8 4 15
v -8 5 15
v -7 4 15
v -7 5 15
v -6 4 15
v -6 5 15
v 12 4 15
v 12 5 15
v 13 4 15
v 13 5 15
v 14 4 15
v 14 5 15
v 15 4 15
v 15 5 15
v 22 0 15
v 22 1 15
v 22 3 15
v 22 5 15
v -11 5 11
v -11 6 11
v -10 5 11
v -9 5 11
v -8 5 11
v -8 6 11
v -7 5 11
v -7 6 11
v -6 5 11
v -4 5 11
v -4 6 11
v -3 5 11
v -3 6 11
v -1 5 11
v -1 6 11
v 0 5 11
v 0 6 11
v 1 5 11
v 1 6 11
v 2 5 11
v 3 5 11
v 3 6 11
v 4 5 11
v 4 6 11
v 5 5 11
v 5 6 11
v 8 5 11
v 8 6 11
v 9 5 11
v 9 6 11
v 11 5 11
v 11 6 11
v 12 5 11
v 12 6 11
v 13 5 11
v 13 6 11
v 14 5 11
v 14 6 11
v 15 5 11
v 16 5 11
v 16 6 11
v -12 4 -1
v -12 5 -1
v -11 4 -1
v -11 5 -1
v -8 4 -1
v -8 5 -1
v -7 4 -1
v -7 5 -1
v -4 4 -1
v -4 5 -1
v -3 4 -1
v -3 5 -1
v 0 4 -1
v 0 5 -1
v 1 4 -1
v 1 5 -1
v 4 4 -1
v 4 5 -1
v 5 4 -1
v 5 5 -1
v 8 4 -1
v 8 5 -1
v 9 4 -1
v 9 5 -1
v 12 4 -1
v 12 5 -1
v 13 4 -1
v 13 5 -1
v 16 4 -1
v 16 5 -1
v 17 4 -1
v 17 5 -1
v -12 4 11
v -12 5 11
v -11 4 11
v -11 5 11
v -8 4 11
v -8 5 11
v -7 4 11
v -7 5 11
v -4 4 11
v -4 5 11
v -3 4 11
v -3 5 11
v 0 4 11
v 0 5 11
v 1 4 11
v 1 5 11
v 4 4 11
v 4 5 11
v 5 4 11
v 5 5 11
v 8 4 11
v 8 5 11
v 9 4 11
v 9 5 11
v 12 4 11
v 12 5 11
v 13 4 11
v 13 5 11
v 16 4 11
v 16 5 11
v 17 4 11
v 17 5 11
v -11 5 -1
v -11 6 -1
v -10 5 -1
v -10 6 -1
v -8 5 -1
v -8 6 -1
v -7 5 -1
v -7 6 -1
v -4 5 -1
v -4 6 -1
v -3 5 -1
v -3 6 -1
v 0 5 -1
v 0 6 -1
v 1 5 -1
v 1 6 -1
v 4 5 -1
v 4 6 -1
v 5 5 -1
v 5 6 -1
v 8 5 -1
v 8 6 -1
v 9 5 -1
v 9 6 -1
v 12 5 -1
v 12 6 -1
v 13 5 -1
v 13 6 -1
v 16 5 -1
v 16 6 -1
v -17 0 -5
v -17 1 -5
v -17 3 -5
v -17 5 -5
v 11 4 -5
v 11 5 -5
v 12 4 -5
v 12 5 -5
v 15 4 -5
v 15 5 -5
v 16 4 -5
v 16 5 -5
v 22 0 -5
v 22 1 -5
v 22 3 -5
v 22 5 -5
v -17 0 15
v 22 0 15
v -16 0 14
v 21 0 14
v -16 0 -4
v 21 0 -4
v -17 0 -5
v 22 0 -5
v -12 4 11
v -11 4 11
v -8 4 11
v -7 4 11
v -4 4 11
v -3 4 11
v 0 4 11
v 1 4 11
v 4 4 11
v 5 4 11
v 8 4 11
v 9 4 11
v 12 4 11
v 13 4 11
v 16 4 11
v 17 4 11
v 16 4 10
v 17 4 10
v 17 4 9
v 17 4 8
v 17 4 7
v -12 4 1
v -11 4 1
v -12 4 -0
v -11 4 -0
v -12 4 -1
v -11 4 -1
v -8 4 -1
v -7 4 -1
v -4 4 -1
v -3 4 -1
v 0 4 -1
v 1 4 -1
v 4 4 -1
v 5 4 -1
v 8 4 -1
v 9 4 -1
v 12 4 -1
v 13 4 -1
v 16 4 -1
v 17 4 -1
v -17 5 15
v -11 5 15
v -10 5 15
v -9 5 15
v -8 5 15
v -7 5 15
v -6 5 15
v 12 5 15
v 13 5 15
v 14 5 15
v 15 5 15
v 22 5 15
v -1 5 14
v 0 5 14
v 1 5 14
v 2 5 14
v 3 5 14
v 4 5 14
v -16 5 11
v -13 5 11
v -12 5 11
v -11 5 11
v -10 5 11
v -9 5 11
v -8 5 11
v -7 5 11
v -6 5 11
v -4 5 11
v -3 5 11
v -1 5 11
v 0 5 11
v 1 5 11
v 2 5 11
v 3 5 11
v 4 5 11
v 5 5 11
v 8 5 11
v 9 5 11
v 11 5 11
v 12 5 11
v 13 5 11
v 14 5 11
v 15 5 11
v 16 5 11
v 17 5 11
v -16 5 10
v -13 5 10
v 17 5 10
v 21 5 10
v -16 5 9
v -13 5 9
v 17 5 9
v 21 5 9
v -16 5 8
v -13 5 8
v 17 5 8
v 21 5 8
v 17 5 7
v 21 5 7
v 18 5 6
v 21 5 6
v 18 5 5
v 21 5 5
v -17 5 3
v -13 5 3
v -17 5 2
v -13 5 2
v -17 5 1
v -13 5 1
v -17 5 -0
v -13 5 -0
v -17 5 -1
v -13 5 -1
v -12 5 -1
v -11 5 -1
v -10 5 -1
v -8 5 -1
v -7 5 -1
v -4 5 -1
v -3 5 -1
v 0 5 -1
v 1 5 -1
v 4 5 -1
v 5 5 -1
v 8 5 -1
v 9 5 -1
v 12 5 -1
v 13 5 -1
v 16 5 -1
v 17 5 -1
v -17 5 -2
v -13 5 -2
v 11 5 -2
v 12 5 -2
v 13 5 -2
v 14 5 -2
v 15 5 -2
v 16 5 -2
v 13 5 -4
v 14 5 -4
v -17 5 -5
v 11 5 -5
v 12 5 -5
v 15 5 -5
v 16 5 -5
v 22 5 -5
v -11 6 11
v -8 6 11
v -7 6 11
v -4 6 11
v -3 6 11
v -1 6 11
v 0 6 11
v 1 6 11
v 3 6 11
v 4 6 11
v 5 6 11
v 8 6 11
v 9 6 11
v 11 6 11
v 12 6 11
v 13 6 11
v 14 6 11
v 16 6 11
v -1 6 10
v 0 6 10
v 2 6 10
v 3 6 10
v 11 6 10
v 12 6 10
v 14 6 10
v 16 6 10
v -7 6 9
v -6 6 9
v 1 6 9
v 2 6 9
v 9 6 8
v 10 6 8
v 15 6 7
v 16 6 7
v 15 6 6
v 16 6 6
v -7 6 5
v -6 6 5
v -9 6 4
v -8 6 4
v 7 6 4
v 8 6 4
v 9 6 4
v 10 6 4
v -11 6 2
v -10 6 2
v 13 6 2
v 14 6 2
v -9 6 1
v -8 6 1
v 7 6 -0
v 8 6 -0
v 13 6 -0
v 14 6 -0
v -11 6 -1
v -10 6 -1
v -8 6 -1
v -7 6 -1
v -4 6 -1
v -3 6 -1
v 0 6 -1
v 1 6 -1
v 4 6 -1
v 5 6 -1
v 8 6 -1
v 9 6 -1
v 12 6 -1
v 13 6 -1
v 16 6 -1

# faces
f 3/2/1 2/2/1 1/2/1
f 4/2/1 2/2/1 3/2/1
f 5/1/1 4/1/1 3/1/1
f 6/1/1 4/1/1 5/1/1
f 7/2/1 6/2/1 5/2/1
f 8/2/1 6/2/1 7/2/1
f 9/2/1 6/2/1 8/2/1
f 10/2/1 6/2/1 9/2/1
f 11/2/1 6/2/1 10/2/1
f 12/2/1 6/2/1 11/2/1
f 13/2/1 7/2/1 5/2/1
f 14/3/1 8/3/1 7/3/1
f 14/2/1 7/2/1 13/2/1
f 15/2/1 9/2/1 8/2/1
f 15/3/1 8/3/1 14/3/1
f 16/3/1 10/3/1 9/3/1
f 16/2/1 9/2/1 15/2/1
f 17/2/1 11/2/1 10/2/1
f 17/3/1 10/3/1 16/3/1
f 18/3/1 12/3/1 11/3/1
f 18/2/1 11/2/1 17/2/1
f 19/2/1 6/2/1 12/2/1
f 19/3/1 12/3/1 18/3/1
f 20/2/1 6/2/1 19/2/1
f 25/1/1 22/1/1 21/1/1
f 25/1/1 24/1/1 23/1/1
f 25/1/1 23/1/1 22/1/1
f 26/1/1 24/1/1 25/1/1
f 27/1/1 24/1/1 26/1/1
f 28/1/1 26/1/1 25/1/1
f 29/3/1 27/3/1 26/3/1
f 29/1/1 26/1/1 28/1/1
f 30/3/1 27/3/1 29/3/1
f 33/1/1 32/1/1 31/1/1
f 34/1/1 32/1/1 33/1/1
f 35/1/1 32/1/1 34/1/1
f 36/1/1 32/1/1 35/1/1
f 37/1/1 34/1/1 33/1/1
f 38/3/1 35/3/1 34/3/1
f 38/1/1 34/1/1 37/1/1
f 39/1/1 36/1/1 35/1/1
f 39/3/1 35/3/1 38/3/1
f 40/1/1 36/1/1 39/1/1
f 43/1/1 42/1/1 41/1/1
f 44/1/1 42/1/1 43/1/1
f 45/1/1 44/1/1 43/1/1
f 46/1/1 44/1/1 45/1/1
f 49/1/1 48/1/1 47/1/1
f 50/1/1 48/1/1 49/1/1
f 51/1/1 48/1/1 50/1/1
f 52/3/1 50/3/1 49/3/1
f 53/1/1 51/1/1 50/1/1
f 53/3/1 50/3/1 52/3/1
f 54/1/1 51/1/1 53/1/1
f 57/1/1 56/1/1 55/1/1
f 58/1/1 56/1/1 57/1/1
f 59/1/1 58/1/1 57/1/1
f 60/1/1 58/1/1 59/1/1
f 63/1/1 62/1/1 61/1/1
f 64/1/1 62/1/1 63/1/1
f 65/1/1 62/1/1 64/1/1
f 66/1/1 62/1/1 65/1/1
f 67/1/1 64/1/1 63/1/1
f 68/3/1 65/3/1 64/3/1
f 68/1/1 64/1/1 67/1/1
f 69/1/1 66/1/1 65/1/1
f 69/3/1 65/3/1 68/3/1
f 70/1/1 66/1/1 69/1/1
f 73/1/1 72/1/1 71/1/1
f 74/1/1 72/1/1 73/1/1
f 75/1/1 72/1/1 74/1/1
f 76/1/1 72/1/1 75/1/1
f 77/1/1 74/1/1 73/1/1
f 78/3/1 75/3/1 74/3/1
f 78/1/1 74/1/1 77/1/1
f 79/1/1 76/1/1 75/1/1
f 79/3/1 75/3/1 78/3/1
f 80/1/1 76/1/1 79/1/1
f 87/2/1 82/2/1 81/2/1
f 88/3/1 83/3/1 82/3/1
f 88/2/1 82/2/1 87/2/1
f 89/2/1 84/2/1 83/2/1
f 89/3/1 83/3/1 88/3/1
f 90/3/1 85/3/1 84/3/1
f 90/2/1 84/2/1 89/2/1
f 91/2/1 86/2/1 85/2/1
f 91/3/1 85/3/1 90/3/1
f 92/2/1 86/2/1 91/2/1
f 93/2/2 94/2/2 97/2/2
f 95/2/2 96/2/2 97/2/2
f 94/2/2 95/2/2 97/2/2
f 97/2/2 96/2/2 98/2/2
f 99/1/2 100/1/2 101/1/2
f 101/1/2 100/1/2 102/1/2
f 102/1/2 100/1/2 103/1/2
f 103/1/2 100/1/2 104/1/2
f 101/1/2 102/1/2 105/1/2
f 102/3/2 103/3/2 106/3/2
f 105/1/2 102/1/2 106/1/2
f 103/1/2 104/1/2 107/1/2
f 106/3/2 103/3/2 107/3/2
f 107/1/2 104/1/2 108/1/2
f 109/1/2 110/1/2 111/1/2
f 111/1/2 110/1/2 112/1/2
f 111/1/2 112/1/2 113/1/2
f 113/1/2 112/1/2 114/1/2
f 115/1/2 116/1/2 117/1/2
f 117/1/2 116/1/2 118/1/2
f 118/1/2 116/1/2 119/1/2
f 117/3/2 118/3/2 120/3/2
f 118/1/2 119/1/2 121/1/2
f 120/3/2 118/3/2 121/3/2
f 121/1/2 119/1/2 122/1/2
f 123/1/2 124/1/2 125/1/2
f 125/1/2 124/1/2 126/1/2
f 125/1/2 126/1/2 127/1/2
f 127/1/2 126/1/2 128/1/2
f 129/1/2 130/1/2 131/1/2
f 131/1/2 130/1/2 132/1/2
f 132/1/2 130/1/2 133/1/2
f 133/1/2 130/1/2 134/1/2
f 131/1/2 132/1/2 135/1/2
f 132/3/2 133/3/2 136/3/2
f 135/1/2 132/1/2 136/1/2
f 133/1/2 134/1/2 137/1/2
f 136/3/2 133/3/2 137/3/2
f 137/1/2 134/1/2 138/1/2
f 139/1/2 140/1/2 141/1/2
f 141/1/2 140/1/2 142/1/2
f 142/1/2 140/1/2 143/1/2
f 141/3/2 142/3/2 144/3/2
f 142/1/2 143/1/2 145/1/2
f 144/3/2 142/3/2 145/3/2
f 145/1/2 143/1/2 146/1/2
f 147/1/2 148/1/2 150/1/2
f 148/1/2 149/1/2 150/1/2
f 150/1/2 149/1/2 151/1/2
f 151/1/2 149/1/2 152/1/2
f 152/1/2 149/1/2 153/1/2
f 153/1/2 149/1/2 154/1/2
f 150/3/2 151/3/2 155/3/2
f 151/1/2 152/1/2 156/1/2
f 155/3/2 151/3/2 156/3/2
f 152/3/2 153/3/2 157/3/2
f 156/1/2 152/1/2 157/1/2
f 153/1/2 154/1/2 158/1/2
f 157/3/2 153/3/2 158/3/2
f 158/1/2 154/1/2 159/1/2
f 160/2/2 161/2/2 162/2/2
f 162/2/2 161/2/2 163/2/2
f 162/1/2 163/1/2 164/1/2
f 164/1/2 163/1/2 165/1/2
f 164/2/2 165/2/2 166/2/2
f 166/2/2 165/2/2 167/2/2
f 172/2/3 171/2/3 170/2/3
f 173/2/3 171/2/3 172/2/3
f 174/2/3 172/2/3 170/2/3
f 174/3/3 173/3/3 172/3/3
f 175/3/3 173/3/3 174/3/3
f 176/2/3 174/2/3 170/2/3
f 176/2/3 175/2/3 174/2/3
f 177/2/3 175/2/3 176/2/3
f 178/2/3 176/2/3 170/2/3
f 178/3/3 177/3/3 176/3/3
f 179/3/3 177/3/3 178/3/3
f 180/2/3 178/2/3 170/2/3
f 180/2/3 179/2/3 178/2/3
f 181/2/3 179/2/3 180/2/3
f 182/2/3 180/2/3 170/2/3
f 182/3/3 181/3/3 180/3/3
f 183/3/3 181/3/3 182/3/3
f 184/2/3 182/2/3 170/2/3
f 184/2/3 183/2/3 182/2/3
f 185/2/3 183/2/3 184/2/3
f 186/2/3 184/2/3 170/2/3
f 186/3/3 185/3/3 184/3/3
f 187/3/3 185/3/3 186/3/3
f 188/2/3 186/2/3 170/2/3
f 188/2/3 187/2/3 186/2/3
f 189/2/3 187/2/3 188/2/3
f 190/2/3 188/2/3 170/2/3
f 190/3/3 189/3/3 188/3/3
f 191/3/3 189/3/3 190/3/3
f 192/2/3 169/2/3 168/2/3
f 193/1/3 170/1/3 169/1/3
f 193/2/3 169/2/3 192/2/3
f 194/2/3 190/2/3 170/2/3
f 194/1/3 170/1/3 193/1/3
f 194/2/3 191/2/3 190/2/3
f 195/2/3 191/2/3 194/2/3
f 198/1/3 197/1/3 196/1/3
f 199/1/3 197/1/3 198/1/3
f 200/1/3 197/1/3 199/1/3
f 201/1/3 197/1/3 200/1/3
f 204/1/3 203/1/3 202/1/3
f 205/1/3 203/1/3 204/1/3
f 206/1/3 203/1/3 205/1/3
f 209/1/3 208/1/3 207/1/3
f 210/1/3 208/1/3 209/1/3
f 211/3/3 210/3/3 209/3/3
f 212/3/3 210/3/3 211/3/3
f 215/3/3 214/3/3 213/3/3
f 216/3/3 214/3/3 215/3/3
f 217/3/3 214/3/3 216/3/3
f 218/1/3 217/1/3 216/1/3
f 219/1/3 217/1/3 218/1/3
f 222/1/3 221/1/3 220/1/3
f 223/1/3 221/1/3 222/1/3
f 226/1/3 225/1/3 224/1/3
f 227/1/3 225/1/3 226/1/3
f 228/3/3 227/3/3 226/3/3
f 229/3/3 227/3/3 228/3/3
f 232/1/3 231/1/3 230/1/3
f 233/1/3 231/1/3 232/1/3
f 234/3/3 233/3/3 232/3/3
f 235/3/3 233/3/3 234/3/3
f 236/3/3 233/3/3 235/3/3
f 239/2/3 238/2/3 237/2/3
f 240/2/3 238/2/3 239/2/3
f 243/2/3 242/2/3 241/2/3
f 244/2/3 242/2/3 243/2/3
f 247/2/3 246/2/3 245/2/3
f 248/2/3 246/2/3 247/2/3
f 251/2/3 250/2/3 249/2/3
f 252/2/3 250/2/3 251/2/3
f 255/2/3 254/2/3 253/2/3
f 256/2/3 254/2/3 255/2/3
f 259/2/3 258/2/3 257/2/3
f 260/2/3 258/2/3 259/2/3
f 263/2/3 262/2/3 261/2/3
f 264/2/3 262/2/3 263/2/3
f 267/2/3 266/2/3 265/2/3
f 268/2/3 266/2/3 267/2/3
f 269/2/4 270/2/4 271/2/4
f 271/2/4 270/2/4 272/2/4
f 273/2/4 274/2/4 275/2/4
f 275/2/4 274/2/4 276/2/4
f 277/2/4 278/2/4 279/2/4
f 279/2/4 278/2/4 280/2/4
f 281/2/4 282/2/4 283/2/4
f 283/2/4 282/2/4 284/2/4
f 285/2/4 286/2/4 287/2/4
f 287/2/4 286/2/4 288/2/4
f 289/2/4 290/2/4 291/2/4
f 291/2/4 290/2/4 292/2/4
f 293/3/4 294/3/4 295/3/4
f 295/3/4 294/3/4 296/3/4
f 297/2/4 298/2/4 299/2/4
f 299/2/4 298/2/4 300/2/4
f 301/3/4 302/3/4 303/3/4
f 303/3/4 302/3/4 304/3/4
f 303/1/4 304/1/4 305/1/4
f 305/1/4 304/1/4 306/1/4
f 307/1/4 308/1/4 309/1/4
f 309/1/4 308/1/4 310/1/4
f 311/1/4 312/1/4 313/1/4
f 313/1/4 312/1/4 314/1/4
f 315/1/4 316/1/4 317/1/4
f 317/1/4 316/1/4 318/1/4
f 319/1/4 320/1/4 321/1/4
f 321/1/4 320/1/4 322/1/4
f 323/1/4 324/1/4 325/1/4
f 325/1/4 324/1/4 326/1/4
f 327/1/4 328/1/4 329/1/4
f 329/1/4 328/1/4 330/1/4
f 333/2/4 334/2/4 335/2/4
f 335/2/4 334/2/4 336/2/4
f 333/2/4 335/2/4 337/2/4
f 335/3/4 336/3/4 337/3/4
f 337/3/4 336/3/4 338/3/4
f 333/2/4 337/2/4 339/2/4
f 337/2/4 338/2/4 339/2/4
f 339/2/4 338/2/4 340/2/4
f 333/2/4 339/2/4 341/2/4
f 339/3/4 340/3/4 341/3/4
f 341/3/4 340/3/4 342/3/4
f 331/2/4 332/2/4 343/2/4
f 332/1/4 333/1/4 344/1/4
f 343/2/4 332/2/4 344/2/4
f 333/2/4 341/2/4 345/2/4
f 344/1/4 333/1/4 345/1/4
f 341/2/4 342/2/4 345/2/4
f 345/2/4 342/2/4 346/2/4
f 349/2/5 348/2/5 347/2/5
f 350/2/5 348/2/5 349/2/5
f 351/2/5 349/2/5 347/2/5
f 351/1/5 350/1/5 349/1/5
f 352/2/5 348/2/5 350/2/5
f 352/1/5 350/1/5 351/1/5
f 353/2/5 351/2/5 347/2/5
f 353/2/5 352/2/5 351/2/5
f 354/2/5 348/2/5 352/2/5
f 354/2/5 352/2/5 353/2/5
f 369/3/6 370/3/6 371/3/6
f 371/3/6 370/3/6 372/3/6
f 371/1/6 372/1/6 373/1/6
f 371/1/6 373/1/6 374/1/6
f 371/1/6 374/1/6 375/1/6
f 355/1/6 356/1/6 376/1/6
f 376/1/6 356/1/6 377/1/6
f 376/3/6 377/3/6 378/3/6
f 378/3/6 377/3/6 379/3/6
f 378/1/6 379/1/6 380/1/6
f 380/1/6 379/1/6 381/1/6
f 357/1/6 358/1/6 382/1/6
f 382/1/6 358/1/6 383/1/6
f 359/1/6 360/1/6 384/1/6
f 384/1/6 360/1/6 385/1/6
f 361/1/6 362/1/6 386/1/6
f 386/1/6 362/1/6 387/1/6
f 363/1/6 364/1/6 388/1/6
f 388/1/6 364/1/6 389/1/6
f 365/1/6 366/1/6 390/1/6
f 390/1/6 366/1/6 391/1/6
f 367/1/6 368/1/6 392/1/6
f 392/1/6 368/1/6 393/1/6
f 371/1/6 375/1/6 394/1/6
f 394/1/6 375/1/6 395/1/6
f 402/2/6 403/2/6 408/2/6
f 408/2/6 403/2/6 409/2/6
f 409/2/6 403/2/6 410/2/6
f 410/2/6 403/2/6 411/2/6
f 411/2/6 403/2/6 412/2/6
f 412/2/6 403/2/6 413/2/6
f 396/2/6 397/2/6 414/2/6
f 414/2/6 397/2/6 415/2/6
f 415/2/6 397/2/6 416/2/6
f 397/3/6 398/3/6 417/3/6
f 416/2/6 397/2/6 417/2/6
f 398/2/6 399/2/6 418/2/6
f 417/3/6 398/3/6 418/3/6
f 399/3/6 400/3/6 419/3/6
f 418/2/6 399/2/6 419/2/6
f 400/2/6 401/2/6 420/2/6
f 419/3/6 400/3/6 420/3/6
f 401/3/6 402/3/6 421/3/6
f 420/2/6 401/2/6 421/2/6
f 402/2/6 408/2/6 422/2/6
f 421/3/6 402/3/6 422/3/6
f 422/2/6 408/2/6 423/2/6
f 423/2/6 408/2/6 424/2/6
f 408/3/6 409/3/6 425/3/6
f 424/2/6 408/2/6 425/2/6
f 409/2/6 410/2/6 426/2/6
f 425/3/6 409/3/6 426/3/6
f 410/3/6 411/3/6 427/3/6
f 426/2/6 410/2/6 427/2/6
f 411/2/6 412/2/6 428/2/6
f 427/3/6 411/3/6 428/3/6
f 412/3/6 413/3/6 429/3/6
f 428/2/6 412/2/6 429/2/6
f 413/2/6 403/2/6 430/2/6
f 429/3/6 413/3/6 430/3/6
f 430/2/6 403/2/6 431/2/6
f 431/2/6 403/2/6 432/2/6
f 432/2/6 403/2/6 433/2/6
f 433/2/6 403/2/6 434/2/6
f 403/3/6 404/3/6 435/3/6
f 434/2/6 403/2/6 435/2/6
f 404/2/6 405/2/6 436/2/6
f 435/3/6 404/3/6 436/3/6
f 405/3/6 406/3/6 437/3/6
f 436/2/6 405/2/6 437/2/6
f 406/2/6 407/2/6 438/2/6
f 437/3/6 406/3/6 438/3/6
f 438/2/6 407/2/6 439/2/6
f 439/2/6 407/2/6 440/2/6
f 414/3/6 415/3/6 441/3/6
f 396/2/6 414/2/6 441/2/6
f 415/2/6 416/2/6 442/2/6
f 441/3/6 415/3/6 442/3/6
f 440/2/6 407/2/6 443/2/6
f 443/2/6 407/2/6 444/2/6
f 396/2/6 441/2/6 445/2/6
f 441/2/6 442/2/6 445/2/6
f 442/2/6 416/2/6 446/2/6
f 445/2/6 442/2/6 446/2/6
f 443/3/6 444/3/6 447/3/6
f 444/2/6 407/2/6 448/2/6
f 447/3/6 444/3/6 448/3/6
f 396/2/6 445/2/6 449/2/6
f 445/3/6 446/3/6 449/3/6
f 446/2/6 416/2/6 450/2/6
f 449/3/6 446/3/6 450/3/6
f 447/2/6 448/2/6 451/2/6
f 448/2/6 407/2/6 452/2/6
f 451/2/6 448/2/6 452/2/6
f 451/3/6 452/3/6 453/3/6
f 452/2/6 407/2/6 454/2/6
f 453/3/6 452/3/6 454/3/6
f 453/2/6 454/2/6 455/2/6
f 454/2/6 407/2/6 456/2/6
f 455/2/6 454/2/6 456/2/6
f 453/2/6 455/2/6 457/2/6
f 455/3/6 456/3/6 457/3/6
f 456/2/6 407/2/6 458/2/6
f 457/3/6 456/3/6 458/3/6
f 396/2/6 449/2/6 459/2/6
f 449/2/6 450/2/6 459/2/6
f 450/2/6 416/2/6 460/2/6
f 459/2/6 450/2/6 460/2/6
f 459/3/6 460/3/6 461/3/6
f 460/2/6 416/2/6 462/2/6
f 461/3/6 460/3/6 462/3/6
f 461/2/6 462/2/6 463/2/6
f 462/2/6 416/2/6 464/2/6
f 463/2/6 462/2/6 464/2/6
f 463/3/6 464/3/6 465/3/6
f 464/2/6 416/2/6 466/2/6
f 465/3/6 464/3/6 466/3/6
f 465/2/6 466/2/6 467/2/6
f 466/2/6 416/2/6 468/2/6
f 467/2/6 466/2/6 468/2/6
f 468/2/6 416/2/6 469/2/6
f 457/2/6 458/2/6 485/2/6
f 453/2/6 457/2/6 485/2/6
f 467/3/6 468/3/6 486/3/6
f 483/2/6 484/2/6 487/2/6
f 486/3/6 468/3/6 487/3/6
f 482/2/6 483/2/6 487/2/6
f 484/2/6 485/2/6 487/2/6
f 468/2/6 469/2/6 487/2/6
f 481/2/6 482/2/6 487/2/6
f 480/2/6 481/2/6 487/2/6
f 479/2/6 480/2/6 487/2/6
f 478/2/6 479/2/6 487/2/6
f 477/2/6 478/2/6 487/2/6
f 476/2/6 477/2/6 487/2/6
f 475/2/6 476/2/6 487/2/6
f 474/2/6 475/2/6 487/2/6
f 473/2/6 474/2/6 487/2/6
f 472/2/6 473/2/6 487/2/6
f 471/2/6 472/2/6 487/2/6
f 470/2/6 471/2/6 487/2/6
f 469/2/6 470/2/6 487/2/6
f 487/2/6 485/2/6 488/2/6
f 488/2/6 485/2/6 489/2/6
f 489/2/6 485/2/6 490/2/6
f 490/2/6 485/2/6 491/2/6
f 491/2/6 485/2/6 492/2/6
f 492/2/6 485/2/6 493/2/6
f 489/2/6 490/2/6 494/2/6
f 490/3/6 491/3/6 494/3/6
f 491/2/6 492/2/6 495/2/6
f 494/3/6 491/3/6 495/3/6
f 486/2/6 487/2/6 496/2/6
f 487/2/6 488/2/6 496/2/6
f 488/3/6 489/3/6 497/3/6
f 496/2/6 488/2/6 497/2/6
f 494/2/6 495/2/6 498/2/6
f 497/3/6 489/3/6 498/3/6
f 489/2/6 494/2/6 498/2/6
f 495/2/6 492/2/6 499/2/6
f 498/2/6 495/2/6 499/2/6
f 492/3/6 493/3/6 499/3/6
f 493/2/6 485/2/6 500/2/6
f 499/3/6 493/3/6 500/3/6
f 458/2/6 407/2/6 501/2/6
f 500/2/6 485/2/6 501/2/6
f 485/2/6 458/2/6 501/2/6
f 506/1/6 507/1/6 520/1/6
f 507/3/6 508/3/6 520/3/6
f 520/3/6 508/3/6 521/3/6
f 509/3/6 510/3/6 522/3/6
f 510/1/6 511/1/6 523/1/6
f 522/3/6 510/3/6 523/3/6
f 514/1/6 515/1/6 524/1/6
f 515/3/6 516/3/6 524/3/6
f 524/3/6 516/3/6 525/3/6
f 518/3/6 519/3/6 526/3/6
f 517/1/6 518/1/6 526/1/6
f 526/3/6 519/3/6 527/3/6
f 504/1/6 505/1/6 528/1/6
f 528/1/6 505/1/6 529/1/6
f 509/3/6 522/3/6 530/3/6
f 522/1/6 523/1/6 531/1/6
f 530/3/6 522/3/6 531/3/6
f 524/1/6 525/1/6 532/1/6
f 514/1/6 524/1/6 532/1/6
f 532/1/6 525/1/6 533/1/6
f 526/1/6 527/1/6 534/1/6
f 534/1/6 527/1/6 535/1/6
f 526/1/6 534/1/6 536/1/6
f 534/3/6 535/3/6 536/3/6
f 536/3/6 535/3/6 537/3/6
f 528/3/6 529/3/6 538/3/6
f 529/1/6 505/1/6 539/1/6
f 538/3/6 529/3/6 539/3/6
f 502/1/6 503/1/6 540/1/6
f 540/1/6 503/1/6 541/1/6
f 512/1/6 513/1/6 542/1/6
f 542/1/6 513/1/6 543/1/6
f 532/3/6 533/3/6 544/3/6
f 533/1/6 525/1/6 545/1/6
f 544/3/6 533/3/6 545/3/6
f 502/1/6 540/1/6 546/1/6
f 546/1/6 540/1/6 547/1/6
f 517/1/6 526/1/6 548/1/6
f 526/1/6 536/1/6 548/1/6
f 536/1/6 537/1/6 548/1/6
f 548/1/6 537/1/6 549/1/6
f 540/3/6 541/3/6 550/3/6
f 547/1/6 540/1/6 550/1/6
f 550/3/6 541/3/6 551/3/6
f 542/3/6 543/3/6 552/3/6
f 512/1/6 542/1/6 552/1/6
f 552/3/6 543/3/6 553/3/6
f 548/3/6 549/3/6 554/3/6
f 549/1/6 537/1/6 555/1/6
f 554/3/6 549/3/6 555/3/6
f 546/3/6 547/3/6 556/3/6
f 550/1/6 551/1/6 557/1/6
f 556/3/6 547/3/6 557/3/6
f 547/1/6 550/1/6 557/1/6
f 557/1/6 551/1/6 558/1/6
f 538/1/6 539/1/6 559/1/6
f 539/1/6 505/1/6 560/1/6
f 559/1/6 539/1/6 560/1/6
f 520/1/6 521/1/6 561/1/6
f 506/1/6 520/1/6 561/1/6
f 561/1/6 521/1/6 562/1/6
f 530/1/6 531/1/6 563/1/6
f 531/1/6 523/1/6 564/1/6
f 563/1/6 531/1/6 564/1/6
f 523/1/6 511/1/6 564/1/6
f 552/1/6 553/1/6 565/1/6
f 512/1/6 552/1/6 565/1/6
f 565/1/6 553/1/6 566/1/6
f 544/1/6 545/1/6 567/1/6
f 545/1/6 525/1/6 568/1/6
f 567/1/6 545/1/6 568/1/6
f 554/1/6 555/1/6 569/1/6
f 555/1/6 537/1/6 570/1/6
f 569/1/6 555/1/6 570/1/6
