# MagicaVoxel @ Ephtracy

# group
g chr_oldgreen

# material
mtllib chr_oldgreen.mtl
usemtl palette

# normals
vn -1 0 0
vn 1 0 0
vn 0 0 1
vn 0 0 -1
vn 0 -1 0
vn 0 1 0

# texcoords
vt 0.00195313 0.5
vt 0.0332031 0.5
vt 0.0605469 0.5
vt 0.365234 0.5
vt 0.521484 0.5
vt 0.533203 0.5
vt 0.611328 0.5
vt 0.634766 0.5
vt 0.744141 0.5
vt 0.748047 0.5
vt 0.974609 0.5
vt 0.978516 0.5
vt 0.982422 0.5
vt 0.986328 0.5
vt 0.994141 0.5

# verts
v -3 4 2.5
v -3 4 1.5
v -3 5 2.5
v -3 5 1.5
v -3 5 -0.5
v -3 6 1.5
v -3 6 -0.5
v -3 8 0.5
v -3 8 -0.5
v -3 9 3.5
v -3 9 2.5
v -3 10 3.5
v -3 10 2.5
v -3 10 0.5
v -3 10 -0.5
v -2 1 2.5
v -2 1 -2.5
v -2 4 3.5
v -2 4 2.5
v -2 4 1.5
v -2 5 3.5
v -2 5 2.5
v -2 5 1.5
v -2 5 -0.5
v -2 6 1.5
v -2 6 -0.5
v -2 7 2.5
v -2 7 -2.5
v -2 8 0.5
v -2 8 -0.5
v -2 9 2.5
v -2 10 2.5
v -2 10 0.5
v -2 10 -0.5
v -2 12 2.5
v -2 12 -2.5
v -1 0 3.5
v -1 0 2.5
v -1 0 0.5
v -1 0 -0.5
v -1 1 3.5
v -1 1 2.5
v -1 1 0.5
v -1 1 -0.5
v -1 3 3.5
v -1 3 2.5
v -1 4 3.5
v -1 4 2.5
v -1 5 3.5
v -1 5 2.5
v -1 7 3.5
v -1 7 2.5
v -1 12 1.5
v -1 12 -1.5
v -1 13 1.5
v -1 13 -1.5
v 0 7 3.5
v 0 7 2.5
v 0 8 3.5
v 0 8 2.5
v 2 0 0.5
v 2 0 -0.5
v 2 1 0.5
v 2 1 -0.5
v 2 4 -2.5
v 2 4 -3.5
v 2 5 -2.5
v 2 5 -3.5
v 2 9 3.5
v 2 9 2.5
v 2 10 3.5
v 2 10 2.5
v 0 0 3.5
v 0 0 2.5
v 0 0 0.5
v 0 0 -0.5
v 0 1 3.5
v 0 1 2.5
v 0 1 0.5
v 0 1 -0.5
v 0 3 3.5
v 0 3 2.5
v 0 4 3.5
v 0 4 2.5
v 0 9 3.5
v 0 9 2.5
v 0 10 3.5
v 0 10 2.5
v 2 4 3.5
v 2 4 2.5
v 2 5 3.5
v 2 5 2.5
v 2 7 3.5
v 2 7 2.5
v 2 8 3.5
v 2 8 2.5
v 3 0 0.5
v 3 0 -0.5
v 3 1 0.5
v 3 1 -0.5
v 3 5 3.5
v 3 5 2.5
v 3 6 3.5
v 3 6 2.5
v 3 7 3.5
v 3 7 2.5
v 3 12 1.5
v 3 12 -1.5
v 3 13 1.5
v 3 13 -1.5
v 4 1 2.5
v 4 1 -1.5
v 4 1 -2.5
v 4 4 -1.5
v 4 4 -2.5
v 4 4 -3.5
v 4 5 0.5
v 4 5 -1.5
v 4 5 -2.5
v 4 5 -3.5
v 4 6 0.5
v 4 6 -1.5
v 4 7 2.5
v 4 7 -1.5
v 4 7 -2.5
v 4 8 0.5
v 4 8 -0.5
v 4 9 2.5
v 4 10 2.5
v 4 10 0.5
v 4 10 -0.5
v 4 12 2.5
v 4 12 -2.5
v 5 4 -1.5
v 5 4 -2.5
v 5 5 0.5
v 5 5 -1.5
v 5 5 -2.5
v 5 6 0.5
v 5 6 -1.5
v 5 8 0.5
v 5 8 -0.5
v 5 9 3.5
v 5 9 2.5
v 5 10 3.5
v 5 10 2.5
v 5 10 0.5
v 5 10 -0.5
v -3 9 3.5
v -3 10 3.5
v -2 4 3.5
v -2 5 3.5
v -1 0 3.5
v -1 1 3.5
v -1 3 3.5
v -1 4 3.5
v -1 5 3.5
v -1 7 3.5
v -1 9 3.5
v -1 10 3.5
v 0 0 3.5
v 0 1 3.5
v 0 3 3.5
v 0 4 3.5
v 0 5 3.5
v 0 7 3.5
v 0 8 3.5
v 0 9 3.5
v 0 10 3.5
v 2 4 3.5
v 2 5 3.5
v 2 6 3.5
v 2 7 3.5
v 2 8 3.5
v 2 9 3.5
v 2 10 3.5
v 3 5 3.5
v 3 6 3.5
v 3 7 3.5
v 3 9 3.5
v 3 10 3.5
v 5 9 3.5
v 5 10 3.5
v -3 4 2.5
v -3 5 2.5
v -2 1 2.5
v -2 4 2.5
v -2 5 2.5
v -2 7 2.5
v -2 9 2.5
v -2 10 2.5
v -2 12 2.5
v -1 1 2.5
v -1 3 2.5
v -1 4 2.5
v -1 5 2.5
v -1 7 2.5
v -1 8 2.5
v -1 9 2.5
v -1 10 2.5
v -1 12 2.5
v 0 1 2.5
v 0 3 2.5
v 0 4 2.5
v 0 7 2.5
v 0 8 2.5
v 0 9 2.5
v 0 10 2.5
v 1 1 2.5
v 1 3 2.5
v 2 3 2.5
v 2 4 2.5
v 2 5 2.5
v 2 7 2.5
v 2 8 2.5
v 2 9 2.5
v 2 10 2.5
v 3 5 2.5
v 3 6 2.5
v 3 7 2.5
v 3 8 2.5
v 3 9 2.5
v 3 10 2.5
v 4 1 2.5
v 4 7 2.5
v 4 9 2.5
v 4 10 2.5
v 4 12 2.5
v -3 5 1.5
v -3 6 1.5
v -2 5 1.5
v -2 6 1.5
v -1 12 1.5
v -1 13 1.5
v 0 12 1.5
v 0 13 1.5
v 3 12 1.5
v 3 13 1.5
v -3 8 0.5
v -3 10 0.5
v -2 8 0.5
v -2 10 0.5
v -1 0 0.5
v -1 1 0.5
v 0 0 0.5
v 0 1 0.5
v 2 0 0.5
v 2 1 0.5
v 3 0 0.5
v 3 1 0.5
v 4 5 0.5
v 4 6 0.5
v 4 8 0.5
v 4 10 0.5
v 5 5 0.5
v 5 6 0.5
v 5 8 0.5
v 5 10 0.5
v 4 4 -1.5
v 4 5 -1.5
v 5 4 -1.5
v 5 5 -1.5
v -3 9 2.5
v -3 10 2.5
v -2 9 2.5
v -2 10 2.5
v -1 0 2.5
v -1 1 2.5
v 0 0 2.5
v 0 1 2.5
v 4 9 2.5
v 4 10 2.5
v 5 9 2.5
v 5 10 2.5
v -3 4 1.5
v -3 5 1.5
v -2 4 1.5
v -2 5 1.5
v -3 5 -0.5
v -3 6 -0.5
v -3 8 -0.5
v -3 10 -0.5
v -2 5 -0.5
v -2 6 -0.5
v -2 8 -0.5
v -2 10 -0.5
v -1 0 -0.5
v -1 1 -0.5
v 0 0 -0.5
v 0 1 -0.5
v 2 0 -0.5
v 2 1 -0.5
v 3 0 -0.5
v 3 1 -0.5
v 4 8 -0.5
v 4 10 -0.5
v 5 8 -0.5
v 5 10 -0.5
v -1 12 -1.5
v -1 13 -1.5
v 0 12 -1.5
v 0 13 -1.5
v 3 12 -1.5
v 3 13 -1.5
v 4 5 -1.5
v 4 6 -1.5
v 5 5 -1.5
v 5 6 -1.5
v -2 1 -2.5
v -2 7 -2.5
v -2 12 -2.5
v -1 7 -2.5
v -1 12 -2.5
v 2 4 -2.5
v 2 5 -2.5
v 4 1 -2.5
v 4 4 -2.5
v 4 5 -2.5
v 4 7 -2.5
v 4 12 -2.5
v 5 4 -2.5
v 5 5 -2.5
v 2 4 -3.5
v 2 5 -3.5
v 4 4 -3.5
v 4 5 -3.5
v -1 0 3.5
v 0 0 3.5
v -1 0 2.5
v 0 0 2.5
v -1 0 0.5
v 0 0 0.5
v 2 0 0.5
v 3 0 0.5
v -1 0 -0.5
v 0 0 -0.5
v 2 0 -0.5
v 3 0 -0.5
v -2 1 2.5
v -1 1 2.5
v 0 1 2.5
v 1 1 2.5
v 4 1 2.5
v 0 1 1.5
v 1 1 1.5
v -1 1 0.5
v 0 1 0.5
v 2 1 0.5
v 3 1 0.5
v -1 1 -0.5
v 0 1 -0.5
v 2 1 -0.5
v 3 1 -0.5
v -1 1 -1.5
v 4 1 -1.5
v -2 1 -2.5
v 4 1 -2.5
v -2 4 3.5
v -1 4 3.5
v 0 4 3.5
v 2 4 3.5
v -3 4 2.5
v -2 4 2.5
v -1 4 2.5
v 0 4 2.5
v 2 4 2.5
v -3 4 1.5
v -2 4 1.5
v 4 4 -1.5
v 5 4 -1.5
v 2 4 -2.5
v 4 4 -2.5
v 5 4 -2.5
v 2 4 -3.5
v 4 4 -3.5
v 2 5 3.5
v 3 5 3.5
v 2 5 2.5
v 3 5 2.5
v -3 5 1.5
v -2 5 1.5
v 4 5 0.5
v 5 5 0.5
v -3 5 -0.5
v -2 5 -0.5
v 4 5 -1.5
v 5 5 -1.5
v -3 8 0.5
v -2 8 0.5
v 4 8 0.5
v 5 8 0.5
v -3 8 -0.5
v -2 8 -0.5
v 4 8 -0.5
v 5 8 -0.5
v -3 9 3.5
v -1 9 3.5
v 0 9 3.5
v 2 9 3.5
v 3 9 3.5
v 5 9 3.5
v -3 9 2.5
v -2 9 2.5
v -1 9 2.5
v 0 9 2.5
v 2 9 2.5
v 3 9 2.5
v 4 9 2.5
v 5 9 2.5
v -2 5 3.5
v -1 5 3.5
v -3 5 2.5
v -2 5 2.5
v -1 5 2.5
v -3 5 1.5
v -2 5 1.5
v 4 5 -1.5
v 5 5 -1.5
v 2 5 -2.5
v 4 5 -2.5
v 5 5 -2.5
v 2 5 -3.5
v 4 5 -3.5
v -3 6 1.5
v -2 6 1.5
v 4 6 0.5
v 5 6 0.5
v -3 6 -0.5
v -2 6 -0.5
v 4 6 -1.5
v 5 6 -1.5
v -1 7 3.5
v 0 7 3.5
v 2 7 3.5
v 3 7 3.5
v -1 7 2.5
v 0 7 2.5
v 2 7 2.5
v 3 7 2.5
v 0 8 3.5
v 2 8 3.5
v 0 8 2.5
v 2 8 2.5
v -3 10 3.5
v -1 10 3.5
v 0 10 3.5
v 2 10 3.5
v 3 10 3.5
v 5 10 3.5
v -3 10 2.5
v -2 10 2.5
v -1 10 2.5
v 0 10 2.5
v 2 10 2.5
v 3 10 2.5
v 4 10 2.5
v 5 10 2.5
v -3 10 0.5
v -2 10 0.5
v 4 10 0.5
v 5 10 0.5
v -3 10 -0.5
v -2 10 -0.5
v 4 10 -0.5
v 5 10 -0.5
v -2 12 2.5
v -1 12 2.5
v 4 12 2.5
v -1 12 1.5
v 0 12 1.5
v 3 12 1.5
v -1 12 -1.5
v 0 12 -1.5
v 3 12 -1.5
v -2 12 -2.5
v -1 12 -2.5
v 4 12 -2.5
v -1 13 1.5
v 0 13 1.5
v 3 13 1.5
v -1 13 -1.5
v 0 13 -1.5
v 3 13 -1.5

# faces
f 3/10/1 2/10/1 1/10/1
f 4/10/1 2/10/1 3/10/1
f 6/10/1 5/10/1 4/10/1
f 7/10/1 5/10/1 6/10/1
f 12/13/1 11/13/1 10/13/1
f 13/13/1 11/13/1 12/13/1
f 14/3/1 9/3/1 8/3/1
f 15/3/1 9/3/1 14/3/1
f 19/10/1 17/10/1 16/10/1
f 20/10/1 17/10/1 19/10/1
f 21/3/1 19/3/1 18/3/1
f 22/3/1 19/3/1 21/3/1
f 23/10/1 17/10/1 20/10/1
f 24/10/1 17/10/1 23/10/1
f 25/10/1 23/10/1 22/10/1
f 26/10/1 17/10/1 24/10/1
f 27/10/1 25/10/1 22/10/1
f 27/10/1 26/10/1 25/10/1
f 28/10/1 17/10/1 26/10/1
f 28/10/1 26/10/1 27/10/1
f 29/3/1 28/3/1 27/3/1
f 30/3/1 28/3/1 29/3/1
f 31/3/1 29/3/1 27/3/1
f 32/3/1 29/3/1 31/3/1
f 33/3/1 29/3/1 32/3/1
f 34/3/1 28/3/1 30/3/1
f 35/3/1 33/3/1 32/3/1
f 35/3/1 34/3/1 33/3/1
f 36/3/1 28/3/1 34/3/1
f 36/3/1 34/3/1 35/3/1
f 41/6/1 38/6/1 37/6/1
f 42/6/1 38/6/1 41/6/1
f 43/10/1 40/10/1 39/10/1
f 44/10/1 40/10/1 43/10/1
f 45/4/1 42/4/1 41/4/1
f 46/4/1 42/4/1 45/4/1
f 47/6/1 46/6/1 45/6/1
f 48/6/1 46/6/1 47/6/1
f 51/12/1 50/12/1 49/12/1
f 52/12/1 50/12/1 51/12/1
f 55/13/1 54/13/1 53/13/1
f 56/13/1 54/13/1 55/13/1
f 59/12/1 58/12/1 57/12/1
f 60/12/1 58/12/1 59/12/1
f 63/10/1 62/10/1 61/10/1
f 64/10/1 62/10/1 63/10/1
f 67/3/1 66/3/1 65/3/1
f 68/3/1 66/3/1 67/3/1
f 71/13/1 70/13/1 69/13/1
f 72/13/1 70/13/1 71/13/1
f 73/6/2 74/6/2 77/6/2
f 77/6/2 74/6/2 78/6/2
f 75/10/2 76/10/2 79/10/2
f 79/10/2 76/10/2 80/10/2
f 77/4/2 78/4/2 81/4/2
f 81/4/2 78/4/2 82/4/2
f 81/6/2 82/6/2 83/6/2
f 83/6/2 82/6/2 84/6/2
f 85/12/2 86/12/2 87/12/2
f 87/12/2 86/12/2 88/12/2
f 89/14/2 90/14/2 91/14/2
f 91/14/2 90/14/2 92/14/2
f 93/12/2 94/12/2 95/12/2
f 95/12/2 94/12/2 96/12/2
f 97/10/2 98/10/2 99/10/2
f 99/10/2 98/10/2 100/10/2
f 101/14/2 102/14/2 103/14/2
f 103/14/2 102/14/2 104/14/2
f 103/12/2 104/12/2 105/12/2
f 105/12/2 104/12/2 106/12/2
f 107/11/2 108/11/2 109/11/2
f 109/11/2 108/11/2 110/11/2
f 111/9/2 112/9/2 114/9/2
f 112/10/2 113/10/2 114/10/2
f 114/10/2 113/10/2 115/10/2
f 111/9/2 114/9/2 117/9/2
f 117/9/2 114/9/2 118/9/2
f 115/3/2 116/3/2 119/3/2
f 119/3/2 116/3/2 120/3/2
f 111/9/2 117/9/2 121/9/2
f 118/10/2 119/10/2 122/10/2
f 111/9/2 121/9/2 123/9/2
f 121/9/2 122/9/2 123/9/2
f 122/10/2 119/10/2 124/10/2
f 123/9/2 122/9/2 124/9/2
f 124/10/2 119/10/2 125/10/2
f 123/2/2 124/2/2 126/2/2
f 124/2/2 125/2/2 126/2/2
f 126/2/2 125/2/2 127/2/2
f 123/2/2 126/2/2 128/2/2
f 128/2/2 126/2/2 129/2/2
f 129/2/2 126/2/2 130/2/2
f 127/2/2 125/2/2 131/2/2
f 129/2/2 130/2/2 132/2/2
f 130/2/2 131/2/2 132/2/2
f 131/2/2 125/2/2 133/2/2
f 132/2/2 131/2/2 133/2/2
f 134/10/2 135/10/2 137/10/2
f 137/10/2 135/10/2 138/10/2
f 136/10/2 137/10/2 139/10/2
f 139/10/2 137/10/2 140/10/2
f 143/12/2 144/12/2 145/12/2
f 145/12/2 144/12/2 146/12/2
f 141/2/2 142/2/2 147/2/2
f 147/2/2 142/2/2 148/2/2
f 156/3/3 152/3/3 151/3/3
f 157/3/3 152/3/3 156/3/3
f 159/13/3 150/13/3 149/13/3
f 160/13/3 150/13/3 159/13/3
f 161/6/3 154/6/3 153/6/3
f 162/4/3 155/4/3 154/4/3
f 162/6/3 154/6/3 161/6/3
f 163/6/3 156/6/3 155/6/3
f 163/4/3 155/4/3 162/4/3
f 164/3/3 157/3/3 156/3/3
f 164/6/3 156/6/3 163/6/3
f 165/12/3 158/12/3 157/12/3
f 165/3/3 157/3/3 164/3/3
f 166/12/3 158/12/3 165/12/3
f 168/12/3 160/12/3 159/12/3
f 169/12/3 160/12/3 168/12/3
f 170/14/3 165/14/3 164/14/3
f 171/12/3 166/12/3 165/12/3
f 171/14/3 165/14/3 170/14/3
f 171/12/3 167/12/3 166/12/3
f 172/12/3 167/12/3 171/12/3
f 173/12/3 167/12/3 172/12/3
f 174/12/3 167/12/3 173/12/3
f 177/14/3 172/14/3 171/14/3
f 178/12/3 173/12/3 172/12/3
f 178/14/3 172/14/3 177/14/3
f 179/12/3 173/12/3 178/12/3
f 180/13/3 176/13/3 175/13/3
f 181/13/3 176/13/3 180/13/3
f 182/12/3 181/12/3 180/12/3
f 183/12/3 181/12/3 182/12/3
f 187/10/3 185/10/3 184/10/3
f 188/10/3 185/10/3 187/10/3
f 193/10/3 187/10/3 186/10/3
f 194/10/3 187/10/3 193/10/3
f 195/10/3 187/10/3 194/10/3
f 196/10/3 189/10/3 188/10/3
f 197/3/3 190/3/3 189/3/3
f 197/10/3 189/10/3 196/10/3
f 198/3/3 190/3/3 197/3/3
f 199/3/3 190/3/3 198/3/3
f 200/3/3 192/3/3 191/3/3
f 201/3/3 192/3/3 200/3/3
f 205/3/3 198/3/3 197/3/3
f 206/15/3 199/15/3 198/15/3
f 206/3/3 198/3/3 205/3/3
f 207/15/3 199/15/3 206/15/3
f 208/2/3 201/2/3 200/2/3
f 209/10/3 204/10/3 203/10/3
f 209/10/3 203/10/3 202/10/3
f 210/10/3 204/10/3 209/10/3
f 211/9/3 210/9/3 209/9/3
f 211/10/3 204/10/3 210/10/3
f 212/10/3 204/10/3 211/10/3
f 215/2/3 207/2/3 206/2/3
f 215/2/3 208/2/3 207/2/3
f 216/2/3 208/2/3 215/2/3
f 217/2/3 201/2/3 208/2/3
f 217/2/3 208/2/3 216/2/3
f 218/9/3 213/9/3 212/9/3
f 218/9/3 212/9/3 211/9/3
f 220/2/3 215/2/3 214/2/3
f 221/15/3 216/15/3 215/15/3
f 221/2/3 215/2/3 220/2/3
f 222/15/3 216/15/3 221/15/3
f 223/2/3 201/2/3 217/2/3
f 224/9/3 219/9/3 218/9/3
f 224/9/3 220/9/3 219/9/3
f 224/9/3 211/9/3 209/9/3
f 224/9/3 218/9/3 211/9/3
f 225/2/3 222/2/3 221/2/3
f 225/9/3 220/9/3 224/9/3
f 225/2/3 221/2/3 220/2/3
f 226/2/3 222/2/3 225/2/3
f 227/2/3 201/2/3 223/2/3
f 228/2/3 201/2/3 227/2/3
f 231/10/3 230/10/3 229/10/3
f 232/10/3 230/10/3 231/10/3
f 235/13/3 234/13/3 233/13/3
f 236/13/3 234/13/3 235/13/3
f 237/11/3 236/11/3 235/11/3
f 238/11/3 236/11/3 237/11/3
f 241/3/3 240/3/3 239/3/3
f 242/3/3 240/3/3 241/3/3
f 245/10/3 244/10/3 243/10/3
f 246/10/3 244/10/3 245/10/3
f 249/10/3 248/10/3 247/10/3
f 250/10/3 248/10/3 249/10/3
f 255/10/3 252/10/3 251/10/3
f 256/10/3 252/10/3 255/10/3
f 257/2/3 254/2/3 253/2/3
f 258/2/3 254/2/3 257/2/3
f 261/10/3 260/10/3 259/10/3
f 262/10/3 260/10/3 261/10/3
f 263/13/4 264/13/4 265/13/4
f 265/13/4 264/13/4 266/13/4
f 267/6/4 268/6/4 269/6/4
f 269/6/4 268/6/4 270/6/4
f 271/12/4 272/12/4 273/12/4
f 273/12/4 272/12/4 274/12/4
f 275/10/4 276/10/4 277/10/4
f 277/10/4 276/10/4 278/10/4
f 279/10/4 280/10/4 283/10/4
f 283/10/4 280/10/4 284/10/4
f 281/3/4 282/3/4 285/3/4
f 285/3/4 282/3/4 286/3/4
f 287/10/4 288/10/4 289/10/4
f 289/10/4 288/10/4 290/10/4
f 291/10/4 292/10/4 293/10/4
f 293/10/4 292/10/4 294/10/4
f 295/2/4 296/2/4 297/2/4
f 297/2/4 296/2/4 298/2/4
f 299/13/4 300/13/4 301/13/4
f 301/13/4 300/13/4 302/13/4
f 301/11/4 302/11/4 303/11/4
f 303/11/4 302/11/4 304/11/4
f 305/10/4 306/10/4 307/10/4
f 307/10/4 306/10/4 308/10/4
f 309/10/4 310/10/4 312/10/4
f 310/3/4 311/3/4 312/3/4
f 312/3/4 311/3/4 313/3/4
f 309/10/4 312/10/4 314/10/4
f 314/10/4 312/10/4 315/10/4
f 309/10/4 314/10/4 316/10/4
f 316/10/4 314/10/4 317/10/4
f 315/10/4 312/10/4 318/10/4
f 312/2/4 313/2/4 319/2/4
f 318/10/4 312/10/4 319/10/4
f 319/2/4 313/2/4 320/2/4
f 317/10/4 318/10/4 321/10/4
f 321/10/4 318/10/4 322/10/4
f 323/3/4 324/3/4 325/3/4
f 325/3/4 324/3/4 326/3/4
f 329/6/5 328/6/5 327/6/5
f 330/6/5 328/6/5 329/6/5
f 335/10/5 332/10/5 331/10/5
f 336/10/5 332/10/5 335/10/5
f 337/10/5 334/10/5 333/10/5
f 338/10/5 334/10/5 337/10/5
f 344/9/5 341/9/5 340/9/5
f 344/10/5 342/10/5 341/10/5
f 345/9/5 343/9/5 342/9/5
f 345/10/5 342/10/5 344/10/5
f 346/10/5 340/10/5 339/10/5
f 346/9/5 344/9/5 340/9/5
f 346/9/5 345/9/5 344/9/5
f 347/9/5 345/9/5 346/9/5
f 348/9/5 343/9/5 345/9/5
f 348/9/5 345/9/5 347/9/5
f 349/9/5 343/9/5 348/9/5
f 350/10/5 346/10/5 339/10/5
f 351/9/5 348/9/5 347/9/5
f 352/9/5 348/9/5 351/9/5
f 353/9/5 343/9/5 349/9/5
f 354/9/5 352/9/5 351/9/5
f 354/9/5 353/9/5 352/9/5
f 354/10/5 350/10/5 339/10/5
f 354/9/5 351/9/5 350/9/5
f 355/9/5 343/9/5 353/9/5
f 355/9/5 353/9/5 354/9/5
f 356/10/5 354/10/5 339/10/5
f 356/10/5 355/10/5 354/10/5
f 357/10/5 355/10/5 356/10/5
f 363/3/5 359/3/5 358/3/5
f 364/3/5 359/3/5 363/3/5
f 365/14/5 361/14/5 360/14/5
f 366/14/5 361/14/5 365/14/5
f 367/10/5 363/10/5 362/10/5
f 368/10/5 363/10/5 367/10/5
f 372/10/5 370/10/5 369/10/5
f 373/10/5 370/10/5 372/10/5
f 374/3/5 372/3/5 371/3/5
f 375/3/5 372/3/5 374/3/5
f 378/14/5 377/14/5 376/14/5
f 379/14/5 377/14/5 378/14/5
f 384/10/5 381/10/5 380/10/5
f 385/10/5 381/10/5 384/10/5
f 386/10/5 383/10/5 382/10/5
f 387/10/5 383/10/5 386/10/5
f 392/3/5 389/3/5 388/3/5
f 393/3/5 389/3/5 392/3/5
f 394/2/5 391/2/5 390/2/5
f 395/2/5 391/2/5 394/2/5
f 402/13/5 397/13/5 396/13/5
f 403/13/5 397/13/5 402/13/5
f 404/12/5 398/12/5 397/12/5
f 404/13/5 397/13/5 403/13/5
f 405/12/5 398/12/5 404/12/5
f 406/13/5 400/13/5 399/13/5
f 407/12/5 401/12/5 400/12/5
f 407/13/5 400/13/5 406/13/5
f 408/12/5 401/12/5 407/12/5
f 409/12/5 401/12/5 408/12/5
f 410/3/6 411/3/6 413/3/6
f 413/3/6 411/3/6 414/3/6
f 412/10/6 413/10/6 415/10/6
f 415/10/6 413/10/6 416/10/6
f 417/10/6 418/10/6 420/10/6
f 420/10/6 418/10/6 421/10/6
f 419/3/6 420/3/6 422/3/6
f 422/3/6 420/3/6 423/3/6
f 424/10/6 425/10/6 428/10/6
f 428/10/6 425/10/6 429/10/6
f 426/10/6 427/10/6 430/10/6
f 430/10/6 427/10/6 431/10/6
f 432/12/6 433/12/6 436/12/6
f 436/12/6 433/12/6 437/12/6
f 434/12/6 435/12/6 438/12/6
f 438/12/6 435/12/6 439/12/6
f 440/12/6 441/12/6 442/12/6
f 442/12/6 441/12/6 443/12/6
f 444/13/6 445/13/6 450/13/6
f 450/13/6 445/13/6 451/13/6
f 445/12/6 446/12/6 452/12/6
f 451/13/6 445/13/6 452/13/6
f 452/12/6 446/12/6 453/12/6
f 447/13/6 448/13/6 454/13/6
f 448/12/6 449/12/6 455/12/6
f 454/13/6 448/13/6 455/13/6
f 455/12/6 449/12/6 456/12/6
f 456/12/6 449/12/6 457/12/6
f 458/3/6 459/3/6 462/3/6
f 462/3/6 459/3/6 463/3/6
f 460/2/6 461/2/6 464/2/6
f 464/2/6 461/2/6 465/2/6
f 466/3/6 467/3/6 469/3/6
f 467/2/6 468/2/6 469/2/6
f 469/2/6 468/2/6 470/2/6
f 470/2/6 468/2/6 471/2/6
f 466/3/6 469/3/6 472/3/6
f 471/2/6 468/2/6 474/2/6
f 466/3/6 472/3/6 475/3/6
f 472/2/6 473/2/6 476/2/6
f 475/3/6 472/3/6 476/3/6
f 473/2/6 474/2/6 476/2/6
f 474/2/6 468/2/6 477/2/6
f 476/2/6 474/2/6 477/2/6
f 478/13/6 479/13/6 481/13/6
f 479/11/6 480/11/6 482/11/6
f 481/13/6 479/13/6 482/13/6
f 482/11/6 480/11/6 483/11/6
