# MagicaVoxel @ Ephtracy

# group
g chr_redfolknowp

# material
mtllib chr_redfolknowp.mtl
usemtl palette

# normals
vn -1 0 0
vn 1 0 0
vn 0 0 1
vn 0 0 -1
vn 0 -1 0
vn 0 1 0

# texcoords
vt 0.00195313 0.5
vt 0.0332031 0.5
vt 0.0371094 0.5
vt 0.0605469 0.5
vt 0.166016 0.5
vt 0.845703 0.5
vt 0.962891 0.5
vt 0.974609 0.5
vt 0.978516 0.5
vt 0.982422 0.5
vt 0.994141 0.5

# verts
v -5 10 0.5
v -5 10 -0.5
v -5 11 0.5
v -5 11 -0.5
v -4 8 0.5
v -4 8 -0.5
v -4 8 -1.5
v -4 8 -3.5
v -4 9 0.5
v -4 9 -0.5
v -4 9 -1.5
v -4 9 -2.5
v -4 9 -3.5
v -4 10 1.5
v -4 10 0.5
v -4 10 -0.5
v -4 10 -1.5
v -4 10 -2.5
v -4 11 1.5
v -4 11 0.5
v -4 11 -0.5
v -4 11 -1.5
v -4 12 0.5
v -4 12 -0.5
v -3 2 0.5
v -3 2 -0.5
v -3 3 0.5
v -3 3 -0.5
v -3 4 0.5
v -3 4 -0.5
v -3 5 0.5
v -3 5 -0.5
v -3 5 -1.5
v -3 6 2.5
v -3 6 0.5
v -3 6 -0.5
v -3 6 -1.5
v -3 6 -2.5
v -3 7 2.5
v -3 7 0.5
v -3 7 -2.5
v -3 8 1.5
v -3 8 0.5
v -3 8 -0.5
v -3 8 -1.5
v -3 8 -2.5
v -3 9 2.5
v -3 9 1.5
v -3 9 0.5
v -3 9 -0.5
v -3 9 -1.5
v -3 10 1.5
v -3 10 0.5
v -3 10 -1.5
v -3 10 -2.5
v -3 11 2.5
v -3 11 1.5
v -3 11 0.5
v -3 11 -0.5
v -3 11 -1.5
v -3 12 1.5
v -3 12 0.5
v -3 12 -0.5
v -3 12 -1.5
v -3 12 -2.5
v -3 13 0.5
v -3 13 -1.5
v -2 0 0.5
v -2 0 -0.5
v -2 1 0.5
v -2 1 -0.5
v -2 2 1.5
v -2 2 0.5
v -2 2 -0.5
v -2 2 -1.5
v -2 3 1.5
v -2 3 0.5
v -2 3 -0.5
v -2 3 -1.5
v -2 4 1.5
v -2 4 0.5
v -2 4 -0.5
v -2 4 -1.5
v -2 5 1.5
v -2 5 0.5
v -2 5 -0.5
v -2 5 -1.5
v -2 6 1.5
v -2 6 0.5
v -2 7 1.5
v -2 7 0.5
v -2 7 -2.5
v -2 7 -3.5
v -2 8 1.5
v -2 8 0.5
v -2 10 3.5
v -2 10 2.5
v -2 11 3.5
v -2 11 2.5
v -2 11 1.5
v -2 12 2.5
v -2 12 1.5
v -2 12 0.5
v -2 12 -1.5
v -2 12 -2.5
v -2 12 -3.5
v -2 13 1.5
v -2 13 0.5
v -2 13 -1.5
v -2 13 -2.5
v -2 14 0.5
v -2 14 -1.5
v -1 8 -3.5
v -1 8 -4.5
v -1 11 -3.5
v -1 11 -4.5
v 0 9 2.5
v 0 9 1.5
v 0 10 2.5
v 0 10 1.5
v 1 0 0.5
v 1 0 -0.5
v 1 1 0.5
v 1 1 -0.5
v 1 2 0.5
v 1 2 -0.5
v 2 9 2.5
v 2 9 1.5
v 2 10 2.5
v 2 10 1.5
v 3 8 -2.5
v 3 8 -3.5
v 3 9 -2.5
v 3 9 -3.5
v 3 11 2.5
v 3 11 1.5
v 3 12 2.5
v 3 12 1.5
v -3 8 -2.5
v -3 8 -3.5
v -3 9 -2.5
v -3 9 -3.5
v -2 9 2.5
v -2 9 1.5
v -2 10 2.5
v -2 10 1.5
v -1 0 0.5
v -1 0 -0.5
v -1 1 0.5
v -1 1 -0.5
v -1 2 0.5
v -1 2 -0.5
v 1 8 -3.5
v 1 8 -4.5
v 1 9 2.5
v 1 9 1.5
v 1 10 2.5
v 1 10 1.5
v 1 11 -3.5
v 1 11 -4.5
v 2 0 0.5
v 2 0 -0.5
v 2 1 0.5
v 2 1 -0.5
v 2 2 1.5
v 2 2 0.5
v 2 2 -0.5
v 2 2 -1.5
v 2 3 1.5
v 2 3 0.5
v 2 3 -0.5
v 2 3 -1.5
v 2 4 1.5
v 2 4 0.5
v 2 4 -0.5
v 2 4 -1.5
v 2 5 1.5
v 2 5 0.5
v 2 5 -0.5
v 2 5 -1.5
v 2 6 1.5
v 2 6 0.5
v 2 7 1.5
v 2 7 0.5
v 2 7 -2.5
v 2 7 -3.5
v 2 8 1.5
v 2 8 0.5
v 2 10 3.5
v 2 10 2.5
v 2 11 3.5
v 2 11 2.5
v 2 11 1.5
v 2 12 2.5
v 2 12 1.5
v 2 12 0.5
v 2 12 -1.5
v 2 12 -2.5
v 2 12 -3.5
v 2 13 1.5
v 2 13 0.5
v 2 13 -1.5
v 2 13 -2.5
v 2 14 0.5
v 2 14 -1.5
v 3 2 0.5
v 3 2 -0.5
v 3 3 0.5
v 3 3 -0.5
v 3 4 0.5
v 3 4 -0.5
v 3 5 0.5
v 3 5 -0.5
v 3 5 -1.5
v 3 6 2.5
v 3 6 0.5
v 3 6 -0.5
v 3 6 -1.5
v 3 6 -2.5
v 3 7 2.5
v 3 7 0.5
v 3 7 -2.5
v 3 8 1.5
v 3 8 0.5
v 3 8 -0.5
v 3 8 -1.5
v 3 8 -2.5
v 3 9 2.5
v 3 9 1.5
v 3 9 0.5
v 3 9 -0.5
v 3 9 -1.5
v 3 10 1.5
v 3 10 0.5
v 3 10 -1.5
v 3 10 -2.5
v 3 11 2.5
v 3 11 1.5
v 3 11 0.5
v 3 12 1.5
v 3 12 0.5
v 3 12 -1.5
v 3 12 -2.5
v 3 13 0.5
v 3 13 -1.5
v 4 8 0.5
v 4 8 -0.5
v 4 8 -1.5
v 4 8 -3.5
v 4 9 0.5
v 4 9 -0.5
v 4 9 -1.5
v 4 9 -2.5
v 4 9 -3.5
v 4 10 1.5
v 4 10 0.5
v 4 10 -0.5
v 4 10 -1.5
v 4 10 -2.5
v 4 11 2.5
v 4 11 1.5
v 4 11 0.5
v 4 11 -0.5
v 4 12 2.5
v 4 12 1.5
v 4 12 0.5
v 4 12 -1.5
v 5 10 0.5
v 5 10 -0.5
v 5 11 0.5
v 5 11 -0.5
v -2 10 3.5
v -2 11 3.5
v 2 10 3.5
v 2 11 3.5
v -3 6 2.5
v -3 7 2.5
v -3 9 2.5
v -3 11 2.5
v -2 9 2.5
v -2 10 2.5
v -2 11 2.5
v -2 12 2.5
v -1 6 2.5
v -1 7 2.5
v 0 9 2.5
v 0 10 2.5
v 1 6 2.5
v 1 7 2.5
v 1 9 2.5
v 1 10 2.5
v 2 9 2.5
v 2 10 2.5
v 2 11 2.5
v 2 12 2.5
v 3 6 2.5
v 3 7 2.5
v 3 9 2.5
v 3 11 2.5
v 3 12 2.5
v 4 11 2.5
v 4 12 2.5
v -4 10 1.5
v -4 11 1.5
v -3 8 1.5
v -3 9 1.5
v -3 10 1.5
v -3 11 1.5
v -3 12 1.5
v -2 2 1.5
v -2 3 1.5
v -2 4 1.5
v -2 5 1.5
v -2 6 1.5
v -2 7 1.5
v -2 8 1.5
v -2 9 1.5
v -2 10 1.5
v -2 11 1.5
v -2 12 1.5
v -2 13 1.5
v -1 6 1.5
v -1 7 1.5
v -1 8 1.5
v -1 9 1.5
v 0 2 1.5
v 0 3 1.5
v 0 4 1.5
v 0 7 1.5
v 0 8 1.5
v 0 9 1.5
v 0 10 1.5
v 1 2 1.5
v 1 3 1.5
v 1 4 1.5
v 1 5 1.5
v 1 6 1.5
v 1 7 1.5
v 1 8 1.5
v 1 9 1.5
v 1 10 1.5
v 2 2 1.5
v 2 3 1.5
v 2 4 1.5
v 2 5 1.5
v 2 6 1.5
v 2 7 1.5
v 2 8 1.5
v 2 9 1.5
v 2 10 1.5
v 2 11 1.5
v 2 12 1.5
v 2 13 1.5
v 3 8 1.5
v 3 9 1.5
v 3 10 1.5
v 3 11 1.5
v 3 12 1.5
v 4 10 1.5
v 4 11 1.5
v -5 10 0.5
v -5 11 0.5
v -4 8 0.5
v -4 9 0.5
v -4 10 0.5
v -4 11 0.5
v -4 12 0.5
v -3 2 0.5
v -3 3 0.5
v -3 4 0.5
v -3 5 0.5
v -3 6 0.5
v -3 7 0.5
v -3 8 0.5
v -3 9 0.5
v -3 10 0.5
v -3 11 0.5
v -3 12 0.5
v -3 13 0.5
v -2 0 0.5
v -2 1 0.5
v -2 2 0.5
v -2 3 0.5
v -2 4 0.5
v -2 5 0.5
v -2 6 0.5
v -2 7 0.5
v -2 8 0.5
v -2 12 0.5
v -2 13 0.5
v -2 14 0.5
v -1 0 0.5
v -1 1 0.5
v -1 2 0.5
v 1 0 0.5
v 1 1 0.5
v 1 2 0.5
v 2 0 0.5
v 2 1 0.5
v 2 2 0.5
v 2 3 0.5
v 2 4 0.5
v 2 5 0.5
v 2 6 0.5
v 2 7 0.5
v 2 8 0.5
v 2 12 0.5
v 2 13 0.5
v 2 14 0.5
v 3 2 0.5
v 3 3 0.5
v 3 4 0.5
v 3 5 0.5
v 3 6 0.5
v 3 7 0.5
v 3 8 0.5
v 3 9 0.5
v 3 10 0.5
v 3 11 0.5
v 3 12 0.5
v 3 13 0.5
v 4 8 0.5
v 4 9 0.5
v 4 10 0.5
v 4 11 0.5
v 4 12 0.5
v 5 10 0.5
v 5 11 0.5
v -4 8 -1.5
v -4 9 -1.5
v -3 8 -1.5
v -3 9 -1.5
v 3 8 -1.5
v 3 9 -1.5
v 4 8 -1.5
v 4 9 -1.5
v 3 11 1.5
v 3 12 1.5
v 4 11 1.5
v 4 12 1.5
v -5 10 -0.5
v -5 11 -0.5
v -4 8 -0.5
v -4 9 -0.5
v -4 10 -0.5
v -4 11 -0.5
v -4 12 -0.5
v -3 2 -0.5
v -3 3 -0.5
v -3 4 -0.5
v -3 5 -0.5
v -3 8 -0.5
v -3 9 -0.5
v -3 11 -0.5
v -3 12 -0.5
v -2 0 -0.5
v -2 1 -0.5
v -2 2 -0.5
v -2 3 -0.5
v -2 4 -0.5
v -2 5 -0.5
v -1 0 -0.5
v -1 1 -0.5
v -1 2 -0.5
v 1 0 -0.5
v 1 1 -0.5
v 1 2 -0.5
v 2 0 -0.5
v 2 1 -0.5
v 2 2 -0.5
v 2 3 -0.5
v 2 4 -0.5
v 2 5 -0.5
v 3 2 -0.5
v 3 3 -0.5
v 3 4 -0.5
v 3 5 -0.5
v 3 8 -0.5
v 3 9 -0.5
v 4 8 -0.5
v 4 9 -0.5
v 4 10 -0.5
v 4 11 -0.5
v 5 10 -0.5
v 5 11 -0.5
v -4 10 -1.5
v -4 11 -1.5
v -3 5 -1.5
v -3 6 -1.5
v -3 10 -1.5
v -3 11 -1.5
v -3 12 -1.5
v -3 13 -1.5
v -2 2 -1.5
v -2 3 -1.5
v -2 4 -1.5
v -2 5 -1.5
v -2 6 -1.5
v -2 12 -1.5
v -2 13 -1.5
v -2 14 -1.5
v 2 2 -1.5
v 2 3 -1.5
v 2 4 -1.5
v 2 5 -1.5
v 2 6 -1.5
v 2 12 -1.5
v 2 13 -1.5
v 2 14 -1.5
v 3 5 -1.5
v 3 6 -1.5
v 3 10 -1.5
v 3 12 -1.5
v 3 13 -1.5
v 4 10 -1.5
v 4 12 -1.5
v -4 9 -2.5
v -4 10 -2.5
v -3 6 -2.5
v -3 7 -2.5
v -3 8 -2.5
v -3 9 -2.5
v -3 10 -2.5
v -3 12 -2.5
v -2 7 -2.5
v -2 12 -2.5
v -2 13 -2.5
v 2 7 -2.5
v 2 12 -2.5
v 2 13 -2.5
v 3 6 -2.5
v 3 7 -2.5
v 3 8 -2.5
v 3 9 -2.5
v 3 10 -2.5
v 3 12 -2.5
v 4 9 -2.5
v 4 10 -2.5
v -4 8 -3.5
v -4 9 -3.5
v -3 8 -3.5
v -3 9 -3.5
v -2 7 -3.5
v -2 12 -3.5
v -1 8 -3.5
v -1 11 -3.5
v 1 8 -3.5
v 1 11 -3.5
v 2 7 -3.5
v 2 12 -3.5
v 3 8 -3.5
v 3 9 -3.5
v 4 8 -3.5
v 4 9 -3.5
v -1 8 -4.5
v -1 11 -4.5
v 1 8 -4.5
v 1 11 -4.5
v -2 0 0.5
v -1 0 0.5
v 1 0 0.5
v 2 0 0.5
v -2 0 -0.5
v -1 0 -0.5
v 1 0 -0.5
v 2 0 -0.5
v -2 2 1.5
v 0 2 1.5
v 1 2 1.5
v 2 2 1.5
v -3 2 0.5
v -2 2 0.5
v -1 2 0.5
v 0 2 0.5
v 1 2 0.5
v 2 2 0.5
v 3 2 0.5
v -3 2 -0.5
v -2 2 -0.5
v -1 2 -0.5
v 1 2 -0.5
v 2 2 -0.5
v 3 2 -0.5
v -2 2 -1.5
v 2 2 -1.5
v -3 5 -0.5
v -2 5 -0.5
v 2 5 -0.5
v 3 5 -0.5
v -3 5 -1.5
v -2 5 -1.5
v 2 5 -1.5
v 3 5 -1.5
v -3 6 2.5
v -1 6 2.5
v 1 6 2.5
v 3 6 2.5
v -2 6 1.5
v -1 6 1.5
v 1 6 1.5
v 2 6 1.5
v -3 6 0.5
v -2 6 0.5
v 2 6 0.5
v 3 6 0.5
v -3 6 -1.5
v -2 6 -1.5
v 2 6 -1.5
v 3 6 -1.5
v -3 6 -2.5
v 3 6 -2.5
v -2 7 -2.5
v 2 7 -2.5
v -2 7 -3.5
v 2 7 -3.5
v -3 8 1.5
v -2 8 1.5
v 2 8 1.5
v 3 8 1.5
v -4 8 0.5
v -3 8 0.5
v -2 8 0.5
v 2 8 0.5
v 3 8 0.5
v 4 8 0.5
v -4 8 -0.5
v -3 8 -0.5
v 3 8 -0.5
v 4 8 -0.5
v -4 8 -1.5
v -3 8 -1.5
v 3 8 -1.5
v 4 8 -1.5
v -3 8 -2.5
v 3 8 -2.5
v -4 8 -3.5
v -3 8 -3.5
v -1 8 -3.5
v 1 8 -3.5
v 3 8 -3.5
v 4 8 -3.5
v -1 8 -4.5
v 1 8 -4.5
v -3 9 2.5
v -2 9 2.5
v 0 9 2.5
v 1 9 2.5
v 2 9 2.5
v 3 9 2.5
v -3 9 1.5
v -2 9 1.5
v 0 9 1.5
v 1 9 1.5
v 2 9 1.5
v 3 9 1.5
v -4 9 -0.5
v -3 9 -0.5
v 3 9 -0.5
v 4 9 -0.5
v -4 9 -1.5
v -3 9 -1.5
v 3 9 -1.5
v 4 9 -1.5
v -2 10 3.5
v 2 10 3.5
v -2 10 2.5
v 0 10 2.5
v 1 10 2.5
v 2 10 2.5
v -4 10 1.5
v -3 10 1.5
v -2 10 1.5
v 0 10 1.5
v 1 10 1.5
v 2 10 1.5
v 3 10 1.5
v 4 10 1.5
v -5 10 0.5
v -4 10 0.5
v -3 10 0.5
v 3 10 0.5
v 4 10 0.5
v 5 10 0.5
v -5 10 -0.5
v -4 10 -0.5
v 4 10 -0.5
v 5 10 -0.5
v 3 11 2.5
v 4 11 2.5
v 3 11 1.5
v 4 11 1.5
v -3 7 2.5
v -1 7 2.5
v 1 7 2.5
v 3 7 2.5
v -2 7 1.5
v -1 7 1.5
v 0 7 1.5
v 1 7 1.5
v 2 7 1.5
v -3 7 0.5
v -2 7 0.5
v 2 7 0.5
v 3 7 0.5
v -4 9 -2.5
v -3 9 -2.5
v 3 9 -2.5
v 4 9 -2.5
v -4 9 -3.5
v -3 9 -3.5
v 3 9 -3.5
v 4 9 -3.5
v -4 10 -1.5
v -3 10 -1.5
v 3 10 -1.5
v 4 10 -1.5
v -4 10 -2.5
v -3 10 -2.5
v 3 10 -2.5
v 4 10 -2.5
v -2 11 3.5
v 2 11 3.5
v -3 11 2.5
v -2 11 2.5
v 2 11 2.5
v 3 11 2.5
v -4 11 1.5
v -3 11 1.5
v -2 11 1.5
v 2 11 1.5
v 3 11 1.5
v 4 11 1.5
v -5 11 0.5
v -4 11 0.5
v -3 11 0.5
v 3 11 0.5
v 4 11 0.5
v 5 11 0.5
v -5 11 -0.5
v -4 11 -0.5
v -3 11 -0.5
v 4 11 -0.5
v 5 11 -0.5
v -4 11 -1.5
v -3 11 -1.5
v -1 11 -3.5
v 1 11 -3.5
v -1 11 -4.5
v 1 11 -4.5
v -2 12 2.5
v 2 12 2.5
v 3 12 2.5
v 4 12 2.5
v -3 12 1.5
v -2 12 1.5
v 2 12 1.5
v 3 12 1.5
v 4 12 1.5
v -4 12 0.5
v -3 12 0.5
v -2 12 0.5
v 2 12 0.5
v 3 12 0.5
v 4 12 0.5
v -4 12 -0.5
v -3 12 -0.5
v -3 12 -1.5
v -2 12 -1.5
v 2 12 -1.5
v 3 12 -1.5
v 4 12 -1.5
v -3 12 -2.5
v -2 12 -2.5
v 2 12 -2.5
v 3 12 -2.5
v -2 12 -3.5
v 2 12 -3.5
v -2 13 1.5
v 2 13 1.5
v -3 13 0.5
v -2 13 0.5
v 2 13 0.5
v 3 13 0.5
v -3 13 -1.5
v -2 13 -1.5
v 2 13 -1.5
v 3 13 -1.5
v -2 13 -2.5
v 2 13 -2.5
v -2 14 0.5
v 2 14 0.5
v -2 14 -1.5
v 2 14 -1.5

# faces
f 3/6/1 2/6/1 1/6/1
f 4/6/1 2/6/1 3/6/1
f 9/4/1 6/4/1 5/4/1
f 10/4/1 6/4/1 9/4/1
f 11/6/1 8/6/1 7/6/1
f 12/6/1 8/6/1 11/6/1
f 13/6/1 8/6/1 12/6/1
f 15/6/1 10/6/1 9/6/1
f 15/6/1 11/6/1 10/6/1
f 15/6/1 12/6/1 11/6/1
f 16/6/1 12/6/1 15/6/1
f 17/6/1 12/6/1 16/6/1
f 18/6/1 12/6/1 17/6/1
f 19/6/1 15/6/1 14/6/1
f 20/6/1 15/6/1 19/6/1
f 21/6/1 17/6/1 16/6/1
f 22/6/1 17/6/1 21/6/1
f 23/6/1 21/6/1 20/6/1
f 24/6/1 21/6/1 23/6/1
f 27/6/1 26/6/1 25/6/1
f 28/6/1 26/6/1 27/6/1
f 29/1/1 28/1/1 27/1/1
f 30/1/1 28/1/1 29/1/1
f 31/10/1 30/10/1 29/10/1
f 32/10/1 30/10/1 31/10/1
f 35/3/1 32/3/1 31/3/1
f 36/1/1 33/1/1 32/1/1
f 36/3/1 32/3/1 35/3/1
f 37/1/1 33/1/1 36/1/1
f 39/1/1 35/1/1 34/1/1
f 39/1/1 38/1/1 37/1/1
f 39/1/1 37/1/1 36/1/1
f 39/1/1 36/1/1 35/1/1
f 40/1/1 38/1/1 39/1/1
f 41/1/1 38/1/1 40/1/1
f 43/6/1 41/6/1 40/6/1
f 44/6/1 41/6/1 43/6/1
f 45/6/1 41/6/1 44/6/1
f 46/6/1 41/6/1 45/6/1
f 48/6/1 43/6/1 42/6/1
f 49/6/1 43/6/1 48/6/1
f 50/6/1 45/6/1 44/6/1
f 51/6/1 45/6/1 50/6/1
f 52/6/1 49/6/1 48/6/1
f 52/6/1 48/6/1 47/6/1
f 53/6/1 49/6/1 52/6/1
f 56/6/1 52/6/1 47/6/1
f 57/6/1 52/6/1 56/6/1
f 60/6/1 55/6/1 54/6/1
f 61/6/1 58/6/1 57/6/1
f 62/6/1 58/6/1 61/6/1
f 63/6/1 60/6/1 59/6/1
f 64/6/1 55/6/1 60/6/1
f 64/6/1 60/6/1 63/6/1
f 65/6/1 55/6/1 64/6/1
f 66/6/1 63/6/1 62/6/1
f 66/6/1 64/6/1 63/6/1
f 67/6/1 64/6/1 66/6/1
f 70/6/1 69/6/1 68/6/1
f 71/6/1 69/6/1 70/6/1
f 73/7/1 71/7/1 70/7/1
f 74/7/1 71/7/1 73/7/1
f 76/5/1 73/5/1 72/5/1
f 77/5/1 73/5/1 76/5/1
f 78/5/1 75/5/1 74/5/1
f 79/5/1 75/5/1 78/5/1
f 80/10/1 77/10/1 76/10/1
f 81/10/1 77/10/1 80/10/1
f 82/9/1 79/9/1 78/9/1
f 83/9/1 79/9/1 82/9/1
f 84/5/1 81/5/1 80/5/1
f 85/5/1 81/5/1 84/5/1
f 86/5/1 83/5/1 82/5/1
f 87/5/1 83/5/1 86/5/1
f 88/6/1 85/6/1 84/6/1
f 89/6/1 85/6/1 88/6/1
f 94/4/1 91/4/1 90/4/1
f 95/4/1 91/4/1 94/4/1
f 98/6/1 97/6/1 96/6/1
f 99/6/1 97/6/1 98/6/1
f 101/6/1 100/6/1 99/6/1
f 102/6/1 100/6/1 101/6/1
f 105/6/1 93/6/1 92/6/1
f 106/6/1 93/6/1 105/6/1
f 107/6/1 103/6/1 102/6/1
f 108/6/1 103/6/1 107/6/1
f 109/6/1 105/6/1 104/6/1
f 110/6/1 105/6/1 109/6/1
f 111/6/1 109/6/1 108/6/1
f 112/6/1 109/6/1 111/6/1
f 115/6/1 114/6/1 113/6/1
f 116/6/1 114/6/1 115/6/1
f 119/6/1 118/6/1 117/6/1
f 120/6/1 118/6/1 119/6/1
f 123/6/1 122/6/1 121/6/1
f 124/6/1 122/6/1 123/6/1
f 125/7/1 124/7/1 123/7/1
f 126/7/1 124/7/1 125/7/1
f 129/6/1 128/6/1 127/6/1
f 130/6/1 128/6/1 129/6/1
f 133/6/1 132/6/1 131/6/1
f 134/6/1 132/6/1 133/6/1
f 137/6/1 136/6/1 135/6/1
f 138/6/1 136/6/1 137/6/1
f 139/6/2 140/6/2 141/6/2
f 141/6/2 140/6/2 142/6/2
f 143/6/2 144/6/2 145/6/2
f 145/6/2 144/6/2 146/6/2
f 147/6/2 148/6/2 149/6/2
f 149/6/2 148/6/2 150/6/2
f 149/7/2 150/7/2 151/7/2
f 151/7/2 150/7/2 152/7/2
f 155/6/2 156/6/2 157/6/2
f 157/6/2 156/6/2 158/6/2
f 153/6/2 154/6/2 159/6/2
f 159/6/2 154/6/2 160/6/2
f 161/6/2 162/6/2 163/6/2
f 163/6/2 162/6/2 164/6/2
f 163/7/2 164/7/2 166/7/2
f 166/7/2 164/7/2 167/7/2
f 165/5/2 166/5/2 169/5/2
f 169/5/2 166/5/2 170/5/2
f 167/5/2 168/5/2 171/5/2
f 171/5/2 168/5/2 172/5/2
f 169/9/2 170/9/2 173/9/2
f 173/9/2 170/9/2 174/9/2
f 171/9/2 172/9/2 175/9/2
f 175/9/2 172/9/2 176/9/2
f 173/1/2 174/1/2 177/1/2
f 177/1/2 174/1/2 178/1/2
f 175/5/2 176/5/2 179/5/2
f 179/5/2 176/5/2 180/5/2
f 177/6/2 178/6/2 181/6/2
f 181/6/2 178/6/2 182/6/2
f 183/2/2 184/2/2 187/2/2
f 187/2/2 184/2/2 188/2/2
f 189/6/2 190/6/2 191/6/2
f 191/6/2 190/6/2 192/6/2
f 192/6/2 193/6/2 194/6/2
f 194/6/2 193/6/2 195/6/2
f 185/6/2 186/6/2 198/6/2
f 198/6/2 186/6/2 199/6/2
f 195/6/2 196/6/2 200/6/2
f 200/6/2 196/6/2 201/6/2
f 197/6/2 198/6/2 202/6/2
f 202/6/2 198/6/2 203/6/2
f 201/6/2 202/6/2 204/6/2
f 204/6/2 202/6/2 205/6/2
f 206/6/2 207/6/2 208/6/2
f 208/6/2 207/6/2 209/6/2
f 208/1/2 209/1/2 210/1/2
f 210/1/2 209/1/2 211/1/2
f 210/8/2 211/8/2 212/8/2
f 212/8/2 211/8/2 213/8/2
f 212/3/2 213/3/2 216/3/2
f 213/1/2 214/1/2 217/1/2
f 216/3/2 213/3/2 217/3/2
f 217/1/2 214/1/2 218/1/2
f 215/1/2 216/1/2 220/1/2
f 218/1/2 219/1/2 220/1/2
f 217/1/2 218/1/2 220/1/2
f 216/1/2 217/1/2 220/1/2
f 220/1/2 219/1/2 221/1/2
f 221/1/2 219/1/2 222/1/2
f 221/6/2 222/6/2 224/6/2
f 224/6/2 222/6/2 225/6/2
f 225/6/2 222/6/2 226/6/2
f 226/6/2 222/6/2 227/6/2
f 223/6/2 224/6/2 229/6/2
f 229/6/2 224/6/2 230/6/2
f 225/6/2 226/6/2 231/6/2
f 231/6/2 226/6/2 232/6/2
f 229/6/2 230/6/2 233/6/2
f 228/6/2 229/6/2 233/6/2
f 233/6/2 230/6/2 234/6/2
f 228/6/2 233/6/2 237/6/2
f 237/6/2 233/6/2 238/6/2
f 238/6/2 239/6/2 240/6/2
f 240/6/2 239/6/2 241/6/2
f 235/6/2 236/6/2 242/6/2
f 242/6/2 236/6/2 243/6/2
f 241/6/2 242/6/2 244/6/2
f 244/6/2 242/6/2 245/6/2
f 246/4/2 247/4/2 250/4/2
f 250/4/2 247/4/2 251/4/2
f 248/6/2 249/6/2 252/6/2
f 252/6/2 249/6/2 253/6/2
f 253/6/2 249/6/2 254/6/2
f 250/6/2 251/6/2 256/6/2
f 251/6/2 252/6/2 256/6/2
f 252/6/2 253/6/2 256/6/2
f 256/6/2 253/6/2 257/6/2
f 257/6/2 253/6/2 258/6/2
f 258/6/2 253/6/2 259/6/2
f 255/6/2 256/6/2 261/6/2
f 261/6/2 256/6/2 262/6/2
f 257/6/2 258/6/2 263/6/2
f 260/6/2 261/6/2 264/6/2
f 264/6/2 261/6/2 265/6/2
f 262/6/2 263/6/2 266/6/2
f 263/6/2 258/6/2 267/6/2
f 266/6/2 263/6/2 267/6/2
f 268/6/2 269/6/2 270/6/2
f 270/6/2 269/6/2 271/6/2
f 274/6/3 273/6/3 272/6/3
f 275/6/3 273/6/3 274/6/3
f 280/6/3 279/6/3 278/6/3
f 281/6/3 279/6/3 280/6/3
f 282/6/3 279/6/3 281/6/3
f 284/1/3 277/1/3 276/1/3
f 285/1/3 277/1/3 284/1/3
f 288/3/3 285/3/3 284/3/3
f 289/3/3 285/3/3 288/3/3
f 290/6/3 287/6/3 286/6/3
f 291/6/3 287/6/3 290/6/3
f 294/6/3 283/6/3 282/6/3
f 295/6/3 283/6/3 294/6/3
f 296/1/3 289/1/3 288/1/3
f 297/1/3 289/1/3 296/1/3
f 298/6/3 293/6/3 292/6/3
f 298/6/3 294/6/3 293/6/3
f 299/6/3 294/6/3 298/6/3
f 301/6/3 300/6/3 299/6/3
f 302/6/3 300/6/3 301/6/3
f 307/6/3 304/6/3 303/6/3
f 308/6/3 304/6/3 307/6/3
f 316/6/3 306/6/3 305/6/3
f 317/6/3 306/6/3 316/6/3
f 319/6/3 309/6/3 308/6/3
f 320/6/3 309/6/3 319/6/3
f 322/6/3 314/6/3 313/6/3
f 323/4/3 316/4/3 315/4/3
f 324/11/3 317/11/3 316/11/3
f 324/4/3 316/4/3 323/4/3
f 325/6/3 318/6/3 317/6/3
f 325/11/3 317/11/3 324/11/3
f 326/5/3 311/5/3 310/5/3
f 327/10/3 312/10/3 311/10/3
f 327/5/3 311/5/3 326/5/3
f 328/5/3 313/5/3 312/5/3
f 328/10/3 312/10/3 327/10/3
f 329/4/3 324/4/3 323/4/3
f 330/2/3 325/2/3 324/2/3
f 330/4/3 324/4/3 329/4/3
f 331/6/3 318/6/3 325/6/3
f 331/2/3 325/2/3 330/2/3
f 332/6/3 318/6/3 331/6/3
f 333/1/3 327/1/3 326/1/3
f 333/1/3 328/1/3 327/1/3
f 334/1/3 328/1/3 333/1/3
f 335/5/3 313/5/3 328/5/3
f 335/1/3 328/1/3 334/1/3
f 336/6/3 322/6/3 313/6/3
f 336/5/3 313/5/3 335/5/3
f 337/6/3 322/6/3 336/6/3
f 338/2/3 330/2/3 329/2/3
f 338/2/3 331/2/3 330/2/3
f 339/2/3 331/2/3 338/2/3
f 340/2/3 331/2/3 339/2/3
f 342/5/3 334/5/3 333/5/3
f 343/9/3 335/9/3 334/9/3
f 343/5/3 334/5/3 342/5/3
f 344/1/3 336/1/3 335/1/3
f 344/9/3 335/9/3 343/9/3
f 345/6/3 337/6/3 336/6/3
f 345/1/3 336/1/3 344/1/3
f 346/6/3 337/6/3 345/6/3
f 347/2/3 339/2/3 338/2/3
f 348/11/3 340/11/3 339/11/3
f 348/2/3 339/2/3 347/2/3
f 349/6/3 341/6/3 340/6/3
f 349/11/3 340/11/3 348/11/3
f 350/6/3 341/6/3 349/6/3
f 352/6/3 321/6/3 320/6/3
f 353/6/3 321/6/3 352/6/3
f 354/6/3 349/6/3 348/6/3
f 355/6/3 349/6/3 354/6/3
f 357/6/3 352/6/3 351/6/3
f 358/6/3 352/6/3 357/6/3
f 359/6/3 357/6/3 356/6/3
f 360/6/3 357/6/3 359/6/3
f 365/6/3 362/6/3 361/6/3
f 366/6/3 362/6/3 365/6/3
f 374/4/3 364/4/3 363/4/3
f 375/6/3 365/6/3 364/6/3
f 375/4/3 364/4/3 374/4/3
f 376/6/3 365/6/3 375/6/3
f 377/6/3 367/6/3 366/6/3
f 378/6/3 367/6/3 377/6/3
f 382/6/3 369/6/3 368/6/3
f 383/1/3 370/1/3 369/1/3
f 383/6/3 369/6/3 382/6/3
f 384/10/3 371/10/3 370/10/3
f 384/1/3 370/1/3 383/1/3
f 385/3/3 372/3/3 371/3/3
f 385/10/3 371/10/3 384/10/3
f 386/3/3 372/3/3 385/3/3
f 387/6/3 374/6/3 373/6/3
f 388/6/3 374/6/3 387/6/3
f 389/6/3 379/6/3 378/6/3
f 390/6/3 379/6/3 389/6/3
f 392/6/3 381/6/3 380/6/3
f 393/7/3 382/7/3 381/7/3
f 393/6/3 381/6/3 392/6/3
f 394/7/3 382/7/3 393/7/3
f 398/6/3 396/6/3 395/6/3
f 399/7/3 397/7/3 396/7/3
f 399/6/3 396/6/3 398/6/3
f 400/7/3 397/7/3 399/7/3
f 408/6/3 391/6/3 390/6/3
f 409/6/3 391/6/3 408/6/3
f 410/6/3 401/6/3 400/6/3
f 411/1/3 402/1/3 401/1/3
f 411/6/3 401/6/3 410/6/3
f 412/8/3 403/8/3 402/8/3
f 412/1/3 402/1/3 411/1/3
f 413/3/3 404/3/3 403/3/3
f 413/8/3 403/8/3 412/8/3
f 414/3/3 404/3/3 413/3/3
f 415/6/3 406/6/3 405/6/3
f 416/6/3 406/6/3 415/6/3
f 420/6/3 408/6/3 407/6/3
f 421/6/3 408/6/3 420/6/3
f 422/4/3 417/4/3 416/4/3
f 423/6/3 418/6/3 417/6/3
f 423/4/3 417/4/3 422/4/3
f 424/6/3 418/6/3 423/6/3
f 425/6/3 420/6/3 419/6/3
f 426/6/3 420/6/3 425/6/3
f 427/6/3 425/6/3 424/6/3
f 428/6/3 425/6/3 427/6/3
f 431/6/3 430/6/3 429/6/3
f 432/6/3 430/6/3 431/6/3
f 435/6/3 434/6/3 433/6/3
f 436/6/3 434/6/3 435/6/3
f 437/6/4 438/6/4 439/6/4
f 439/6/4 438/6/4 440/6/4
f 441/6/4 442/6/4 445/6/4
f 445/6/4 442/6/4 446/6/4
f 443/4/4 444/4/4 452/4/4
f 452/4/4 444/4/4 453/4/4
f 446/6/4 447/6/4 454/6/4
f 454/6/4 447/6/4 455/6/4
f 448/6/4 449/6/4 458/6/4
f 449/1/4 450/1/4 459/1/4
f 458/6/4 449/6/4 459/6/4
f 450/10/4 451/10/4 460/10/4
f 459/1/4 450/1/4 460/1/4
f 460/10/4 451/10/4 461/10/4
f 456/6/4 457/6/4 462/6/4
f 457/7/4 458/7/4 463/7/4
f 462/6/4 457/6/4 463/6/4
f 463/7/4 458/7/4 464/7/4
f 465/6/4 466/6/4 468/6/4
f 466/7/4 467/7/4 469/7/4
f 468/6/4 466/6/4 469/6/4
f 469/7/4 467/7/4 470/7/4
f 470/6/4 471/6/4 474/6/4
f 471/1/4 472/1/4 475/1/4
f 474/6/4 471/6/4 475/6/4
f 472/8/4 473/8/4 476/8/4
f 475/1/4 472/1/4 476/1/4
f 476/8/4 473/8/4 477/8/4
f 478/4/4 479/4/4 480/4/4
f 480/4/4 479/4/4 481/4/4
f 482/6/4 483/6/4 484/6/4
f 484/6/4 483/6/4 485/6/4
f 486/6/4 487/6/4 490/6/4
f 490/6/4 487/6/4 491/6/4
f 488/1/4 489/1/4 497/1/4
f 497/1/4 489/1/4 498/1/4
f 492/6/4 493/6/4 499/6/4
f 499/6/4 493/6/4 500/6/4
f 494/5/4 495/5/4 502/5/4
f 495/9/4 496/9/4 503/9/4
f 502/5/4 495/5/4 503/5/4
f 496/5/4 497/5/4 504/5/4
f 503/9/4 496/9/4 504/9/4
f 497/6/4 498/6/4 505/6/4
f 504/5/4 497/5/4 505/5/4
f 505/6/4 498/6/4 506/6/4
f 500/6/4 501/6/4 508/6/4
f 508/6/4 501/6/4 509/6/4
f 505/1/4 506/1/4 510/1/4
f 510/1/4 506/1/4 511/1/4
f 507/6/4 508/6/4 513/6/4
f 513/6/4 508/6/4 514/6/4
f 512/6/4 513/6/4 515/6/4
f 515/6/4 513/6/4 516/6/4
f 517/6/4 518/6/4 522/6/4
f 522/6/4 518/6/4 523/6/4
f 520/6/4 521/6/4 525/6/4
f 523/6/4 524/6/4 525/6/4
f 522/6/4 523/6/4 525/6/4
f 521/6/4 522/6/4 525/6/4
f 519/1/4 520/1/4 525/1/4
f 525/6/4 524/6/4 526/6/4
f 519/1/4 525/1/4 528/1/4
f 526/6/4 527/6/4 529/6/4
f 529/6/4 527/6/4 530/6/4
f 519/1/4 528/1/4 531/1/4
f 528/6/4 529/6/4 532/6/4
f 531/1/4 528/1/4 532/1/4
f 532/6/4 529/6/4 533/6/4
f 533/6/4 529/6/4 534/6/4
f 534/6/4 529/6/4 535/6/4
f 535/6/4 529/6/4 536/6/4
f 534/6/4 535/6/4 537/6/4
f 537/6/4 535/6/4 538/6/4
f 539/6/4 540/6/4 541/6/4
f 541/6/4 540/6/4 542/6/4
f 543/6/4 544/6/4 545/6/4
f 545/6/4 544/6/4 546/6/4
f 543/6/4 545/6/4 547/6/4
f 546/6/4 544/6/4 548/6/4
f 543/6/4 547/6/4 549/6/4
f 547/6/4 548/6/4 549/6/4
f 548/6/4 544/6/4 550/6/4
f 549/6/4 548/6/4 550/6/4
f 551/6/4 552/6/4 553/6/4
f 553/6/4 552/6/4 554/6/4
f 555/6/4 556/6/4 557/6/4
f 557/6/4 556/6/4 558/6/4
f 563/6/5 560/6/5 559/6/5
f 564/6/5 560/6/5 563/6/5
f 565/6/5 562/6/5 561/6/5
f 566/6/5 562/6/5 565/6/5
f 572/5/5 568/5/5 567/5/5
f 573/5/5 568/5/5 572/5/5
f 574/1/5 569/1/5 568/1/5
f 574/5/5 568/5/5 573/5/5
f 575/5/5 570/5/5 569/5/5
f 575/1/5 569/1/5 574/1/5
f 576/5/5 570/5/5 575/5/5
f 578/6/5 572/6/5 571/6/5
f 579/6/5 572/6/5 578/6/5
f 580/5/5 574/5/5 573/5/5
f 580/5/5 575/5/5 574/5/5
f 581/5/5 575/5/5 580/5/5
f 582/6/5 577/6/5 576/6/5
f 583/6/5 577/6/5 582/6/5
f 584/5/5 581/5/5 580/5/5
f 584/5/5 582/5/5 581/5/5
f 584/5/5 580/5/5 579/5/5
f 585/5/5 582/5/5 584/5/5
f 590/1/5 587/1/5 586/1/5
f 591/1/5 587/1/5 590/1/5
f 592/1/5 589/1/5 588/1/5
f 593/1/5 589/1/5 592/1/5
f 598/1/5 595/1/5 594/1/5
f 599/3/5 596/3/5 595/3/5
f 599/1/5 595/1/5 598/1/5
f 600/1/5 597/1/5 596/1/5
f 600/3/5 596/3/5 599/3/5
f 601/1/5 597/1/5 600/1/5
f 602/1/5 598/1/5 594/1/5
f 603/1/5 598/1/5 602/1/5
f 604/1/5 597/1/5 601/1/5
f 605/1/5 597/1/5 604/1/5
f 610/1/5 607/1/5 606/1/5
f 610/1/5 609/1/5 608/1/5
f 610/1/5 608/1/5 607/1/5
f 611/1/5 609/1/5 610/1/5
f 614/6/5 613/6/5 612/6/5
f 615/6/5 613/6/5 614/6/5
f 621/6/5 617/6/5 616/6/5
f 622/6/5 617/6/5 621/6/5
f 623/6/5 619/6/5 618/6/5
f 624/6/5 619/6/5 623/6/5
f 626/4/5 621/4/5 620/4/5
f 627/4/5 621/4/5 626/4/5
f 628/4/5 625/4/5 624/4/5
f 629/4/5 625/4/5 628/4/5
f 634/6/5 631/6/5 630/6/5
f 635/6/5 633/6/5 632/6/5
f 636/6/5 634/6/5 630/6/5
f 637/6/5 634/6/5 636/6/5
f 640/6/5 633/6/5 635/6/5
f 641/6/5 633/6/5 640/6/5
f 642/6/5 639/6/5 638/6/5
f 643/6/5 639/6/5 642/6/5
f 650/6/5 645/6/5 644/6/5
f 651/6/5 645/6/5 650/6/5
f 652/6/5 647/6/5 646/6/5
f 653/6/5 647/6/5 652/6/5
f 654/6/5 649/6/5 648/6/5
f 655/6/5 649/6/5 654/6/5
f 660/6/5 657/6/5 656/6/5
f 661/6/5 657/6/5 660/6/5
f 662/6/5 659/6/5 658/6/5
f 663/6/5 659/6/5 662/6/5
f 666/6/5 665/6/5 664/6/5
f 667/6/5 665/6/5 666/6/5
f 668/6/5 665/6/5 667/6/5
f 669/6/5 665/6/5 668/6/5
f 672/6/5 667/6/5 666/6/5
f 673/6/5 667/6/5 672/6/5
f 674/6/5 669/6/5 668/6/5
f 675/6/5 669/6/5 674/6/5
f 679/6/5 671/6/5 670/6/5
f 680/6/5 671/6/5 679/6/5
f 681/6/5 677/6/5 676/6/5
f 682/6/5 677/6/5 681/6/5
f 684/6/5 679/6/5 678/6/5
f 685/6/5 679/6/5 684/6/5
f 686/6/5 683/6/5 682/6/5
f 687/6/5 683/6/5 686/6/5
f 690/6/5 689/6/5 688/6/5
f 691/6/5 689/6/5 690/6/5
f 692/1/6 693/1/6 696/1/6
f 693/3/6 694/3/6 697/3/6
f 696/1/6 693/1/6 697/1/6
f 697/3/6 694/3/6 698/3/6
f 694/1/6 695/1/6 699/1/6
f 698/3/6 694/3/6 699/3/6
f 699/1/6 695/1/6 700/1/6
f 692/1/6 696/1/6 701/1/6
f 701/1/6 696/1/6 702/1/6
f 700/1/6 695/1/6 703/1/6
f 703/1/6 695/1/6 704/1/6
f 705/6/6 706/6/6 709/6/6
f 709/6/6 706/6/6 710/6/6
f 707/6/6 708/6/6 711/6/6
f 711/6/6 708/6/6 712/6/6
f 713/6/6 714/6/6 717/6/6
f 717/6/6 714/6/6 718/6/6
f 715/6/6 716/6/6 719/6/6
f 719/6/6 716/6/6 720/6/6
f 721/6/6 722/6/6 724/6/6
f 724/6/6 722/6/6 725/6/6
f 723/6/6 724/6/6 728/6/6
f 728/6/6 724/6/6 729/6/6
f 725/6/6 726/6/6 730/6/6
f 730/6/6 726/6/6 731/6/6
f 727/6/6 728/6/6 734/6/6
f 734/6/6 728/6/6 735/6/6
f 731/6/6 732/6/6 736/6/6
f 736/6/6 732/6/6 737/6/6
f 733/6/6 734/6/6 739/6/6
f 739/6/6 734/6/6 740/6/6
f 737/6/6 738/6/6 742/6/6
f 742/6/6 738/6/6 743/6/6
f 740/6/6 741/6/6 744/6/6
f 744/6/6 741/6/6 745/6/6
f 746/6/6 747/6/6 748/6/6
f 748/6/6 747/6/6 749/6/6
f 750/6/6 751/6/6 755/6/6
f 755/6/6 751/6/6 756/6/6
f 752/6/6 753/6/6 757/6/6
f 757/6/6 753/6/6 758/6/6
f 754/6/6 755/6/6 760/6/6
f 760/6/6 755/6/6 761/6/6
f 756/6/6 757/6/6 762/6/6
f 762/6/6 757/6/6 763/6/6
f 759/6/6 760/6/6 765/6/6
f 765/6/6 760/6/6 766/6/6
f 763/6/6 764/6/6 770/6/6
f 770/6/6 764/6/6 771/6/6
f 767/6/6 768/6/6 772/6/6
f 772/6/6 768/6/6 773/6/6
f 769/6/6 770/6/6 774/6/6
f 774/6/6 770/6/6 775/6/6
f 773/6/6 774/6/6 776/6/6
f 776/6/6 774/6/6 777/6/6
f 778/6/6 779/6/6 781/6/6
f 781/6/6 779/6/6 782/6/6
f 780/6/6 781/6/6 784/6/6
f 784/6/6 781/6/6 785/6/6
f 782/6/6 783/6/6 786/6/6
f 786/6/6 783/6/6 787/6/6
f 785/6/6 786/6/6 788/6/6
f 788/6/6 786/6/6 789/6/6
f 790/6/6 791/6/6 792/6/6
f 792/6/6 791/6/6 793/6/6
